<svg xmlns="http://www.w3.org/2000/svg" xmlns:xlink="http://www.w3.org/1999/xlink" width="510.266" height="532" viewBox="0 0 510.266 532">
  <defs>
    <filter id="Tracé_5" x="0" y="19.688" width="510.266" height="512.312" filterUnits="userSpaceOnUse">
      <feOffset dy="3" input="SourceAlpha"/>
      <feGaussianBlur stdDeviation="3" result="blur"/>
      <feFlood flood-opacity="0.161"/>
      <feComposite operator="in" in2="blur"/>
      <feComposite in="SourceGraphic"/>
    </filter>
  </defs>
  <g id="Groupe_484" data-name="Groupe 484" transform="translate(-1135.895 -324)">
    <g id="Groupe_8" data-name="Groupe 8" transform="translate(1144.895 349.688)">
      <g transform="matrix(1, 0, 0, 1, -9, -25.69)" filter="url(#Tracé_5)">
        <path id="Tracé_5-2" data-name="Tracé 5" d="M272.644,5.969c-10.079,3.205-18.421,5.87-18.5,5.909-.077.077-1.429,9.307-3.051,20.506-1.583,11.2-3.089,20.583-3.321,20.854S236.15,60.151,222.44,68.029c-13.709,7.917-25.1,14.6-25.333,14.907-.541.656-4.094,15.254-3.785,15.563a41.523,41.523,0,0,0,4.9,1.043c2.587.463,4.441.888,4.132,1s-13.169,1.043-28.539,2.047c-23.171,1.506-28,1.738-28.268,1.274-.193-.27-2.433-4.287-5.02-8.921-4.518-8.148-4.673-8.38-5.87-8.419-.7,0-5.484-.425-10.7-.888-5.213-.5-9.539-.811-9.616-.734A22,22,0,0,0,115,88.767c.463,2.085,1.7,7.955,2.781,13.053s2.549,12.049,3.283,15.447c4.248,20,6.333,29.89,6.565,31.126l.27,1.39-7.492.309c-4.094.154-14.211.579-22.514.965l-15.061.656L67.041,144.8l-15.795-6.874L26.878,145.69c-13.4,4.287-24.523,7.917-24.677,8.033-.232.232-2.163,10.543-2.2,11.663a60.727,60.727,0,0,0,6.874-.656c9.848-1.274,9.384-1.545,4.9,2.935l-3.862,3.862,3.823,3.823c3.553,3.592,3.785,3.862,2.9,4.055-.5.116-3.089.579-5.754,1.043-2.626.425-4.827.811-4.866.85s2.549,3.012,5.715,6.642c3.205,3.591,6.295,7.144,6.874,7.878l1.081,1.274,6.951-1.931,6.99-1.97,9.577,3.283c5.252,1.815,14.636,5.059,20.777,7.183,23.634,8.148,26.531,9.153,26.608,9.268.039.077.5,2.7,1.043,5.909l.965,5.793,13.285,1.931c7.337,1.043,12.976,1.969,12.551,2.085-.425.077-3.707.5-7.337.965l-6.565.811.116,1.159c.077.618.927,5.484,1.892,10.813l1.738,9.655,4.673,8.457c2.549,4.634,4.943,8.728,5.252,9.114.348.348,6.218,3.244,13.092,6.411l12.435,5.715v29.466l7.067,10.967c3.9,6.025,7.376,11.431,7.762,12.01.386.618.657,1.081.541,1.081-.077,0-2.124-2.7-4.557-5.986s-4.557-5.947-4.673-5.986c-.116,0-1.892,9.346-3.978,20.738-2.047,11.431-3.862,21.124-3.939,21.549-.154.657.386,1.081,3.707,2.7,2.124,1.043,3.862,2.085,3.862,2.317s-1.043,4.9-2.356,10.427c-5.677,24.368-7.839,33.714-9.5,40.742-.927,4.132-1.776,7.569-1.776,7.569-.039.039-4.055,2.7-8.921,5.909-4.827,3.244-8.65,6.025-8.5,6.179.193.193,5.136,3.939,10.968,8.419,5.831,4.441,15.022,11.431,20.352,15.524l9.77,7.415,21.665,3.939,21.665,3.9,8.844-2.935,8.844-2.935,9,2.974c8.264,2.78,10,3.553,22.592,9.848l13.632,6.835,20.738-1c11.392-.541,20.738-1.043,20.777-1.081s-.077-1.39-.232-2.974c-.193-1.583-.618-6.874-1-11.74l-.7-8.8,1.892-7.724c1.043-4.248,2.008-7.84,2.124-7.994s7.222-4.673,15.795-10l15.6-9.77,19.541,2.935,19.541,2.935,21.742,8.882c12.4,5.059,21.935,8.766,22.205,8.573.232-.154,12.2-9.384,26.531-20.545,14.327-11.122,26.106-20.275,26.183-20.352.193-.116-1.776-17.571-1.97-17.764-.116-.116-4.055-.618-8.8-1.158s-8.689-1-8.728-1.081c-.039-.039-1.39-7.955-3.012-17.61s-3.012-17.61-3.089-17.687-1.352-1-2.781-2.008-2.587-2.047-2.51-2.317c.077-.309,2.665-4.75,5.754-9.886l5.6-9.384-5.87-14.713c-3.244-8.11-5.831-14.752-5.754-14.829.077-.039,2.24-.927,4.789-1.969s4.673-1.892,4.75-1.931c.039-.039-2.124-6.256-4.827-13.825l-4.9-13.787H429.24l-6.758,6.758c-3.707,3.707-6.758,6.681-6.835,6.6-.039-.039-.541-3.939-1.081-8.689l-.965-8.573,18.382-30.006c10.118-16.49,18.691-30.277,19.039-30.624s5.368-1.892,11.161-3.476l10.5-2.819V177.434l9.848-25.6c5.407-14.1,9.809-25.681,9.732-25.72-.077-.077-12.937-3.553-38.734-10.466l-12.358-3.283-8.8-9.809c-4.9-5.484-9.191-9.886-9.655-10-.425-.077-4.9-.541-9.886-1l-9.037-.85-14.714-4.9-14.675-4.9L374.287,70c-.077-10.118-.154-10.89-.772-10.7-1.931.541-26.762,5.715-26.878,5.6-.039-.077-1.854-4.518-3.939-9.809l-3.862-9.655L315.317,30.724,291.76,15.972l-.116-7.955A52.549,52.549,0,0,0,291.258.1C291.1.138,282.723,2.764,272.644,5.969Z" transform="translate(9 25.59)" fill="#fff"/>
      </g>
    </g>
    <g id="pin" transform="translate(1567.811 733.299)">
      <line id="Ligne_531" data-name="Ligne 531" y2="28" transform="translate(12.656 25.701)" fill="none" stroke="#556080" stroke-linecap="round" stroke-miterlimit="10" stroke-width="2"/>
      <ellipse id="Ellipse_141" data-name="Ellipse 141" cx="13.5" cy="13" rx="13.5" ry="13" transform="translate(-0.344 -0.299)" fill="#dd352e"/>
      <ellipse id="Ellipse_142" data-name="Ellipse 142" cx="3" cy="2.5" rx="3" ry="2.5" transform="translate(5.656 6.701)" fill="#f76363"/>
    </g>
    <g id="pin-2" data-name="pin" transform="translate(1392.13 466.04)">
      <line id="Ligne_531-2" data-name="Ligne 531" y2="28" transform="translate(14.337 25.96)" fill="none" stroke="#556080" stroke-linecap="round" stroke-miterlimit="10" stroke-width="2"/>
      <ellipse id="Ellipse_141-2" data-name="Ellipse 141" cx="13.5" cy="13" rx="13.5" ry="13" transform="translate(0.337 -0.04)" fill="#dd352e"/>
      <ellipse id="Ellipse_142-2" data-name="Ellipse 142" cx="3.5" cy="2.5" rx="3.5" ry="2.5" transform="translate(5.337 6.96)" fill="#f76363"/>
    </g>
    <g id="pin-3" data-name="pin" transform="translate(1412.688 324)">
      <line id="Ligne_531-3" data-name="Ligne 531" y2="27" transform="translate(12.778 27)" fill="none" stroke="#556080" stroke-linecap="round" stroke-miterlimit="10" stroke-width="2"/>
      <ellipse id="Ellipse_141-3" data-name="Ellipse 141" cx="13" cy="13.5" rx="13" ry="13.5" transform="translate(-0.222)" fill="#dd352e"/>
      <circle id="Ellipse_142-3" data-name="Ellipse 142" cx="2.5" cy="2.5" r="2.5" transform="translate(5.778 7)" fill="#f76363"/>
    </g>
    <g id="pin-4" data-name="pin" transform="translate(1290.272 601.538)">
      <line id="Ligne_531-4" data-name="Ligne 531" y2="27" transform="translate(14.194 27.462)" fill="none" stroke="#556080" stroke-linecap="round" stroke-miterlimit="10" stroke-width="2"/>
      <circle id="Ellipse_141-4" data-name="Ellipse 141" cx="13.5" cy="13.5" r="13.5" transform="translate(0.194 0.462)" fill="#dd352e"/>
      <circle id="Ellipse_142-4" data-name="Ellipse 142" cx="3.5" cy="3.5" r="3.5" transform="translate(5.194 6.462)" fill="#f76363"/>
    </g>
    <g id="pin-5" data-name="pin" transform="translate(1493.053 724.889)">
      <line id="Ligne_531-5" data-name="Ligne 531" y2="28" transform="translate(13.414 26.111)" fill="none" stroke="#556080" stroke-linecap="round" stroke-miterlimit="10" stroke-width="2"/>
      <ellipse id="Ellipse_141-5" data-name="Ellipse 141" cx="13.5" cy="13" rx="13.5" ry="13" transform="translate(0.414 0.111)" fill="#dd352e"/>
      <circle id="Ellipse_142-5" data-name="Ellipse 142" cx="3" cy="3" r="3" transform="translate(5.414 6.111)" fill="#f76363"/>
    </g>
    <g id="pin-6" data-name="pin" transform="translate(1365.965 402.496)">
      <line id="Ligne_531-6" data-name="Ligne 531" y2="28" transform="translate(13.502 26.504)" fill="none" stroke="#556080" stroke-linecap="round" stroke-miterlimit="10" stroke-width="2"/>
      <circle id="Ellipse_141-6" data-name="Ellipse 141" cx="13.5" cy="13.5" r="13.5" transform="translate(-0.498 -0.496)" fill="#dd352e"/>
      <circle id="Ellipse_142-6" data-name="Ellipse 142" cx="3" cy="3" r="3" transform="translate(5.502 6.504)" fill="#f76363"/>
    </g>
  </g>
</svg>
