<svg xmlns="http://www.w3.org/2000/svg" xmlns:xlink="http://www.w3.org/1999/xlink" width="389" height="606" viewBox="0 0 389 606">
  <defs>
    <clipPath id="clip-path">
      <rect id="Rectangle_83" data-name="Rectangle 83" width="389" height="606" transform="translate(1408.415 241)" fill="none" stroke="#707070" stroke-width="1"/>
    </clipPath>
  </defs>
  <g id="reco_faciale" transform="translate(-1408.415 -241)" clip-path="url(#clip-path)">
    <g id="reconnaissance" transform="translate(1283.402 132.714)">
      <rect id="Rectangle_74" data-name="Rectangle 74" width="2.04" height="9.507" transform="translate(306.429 480.604) rotate(-10.31)" fill="#e6302d"/>
      <rect id="Rectangle_75" data-name="Rectangle 75" width="2.04" height="9.507" transform="translate(309.83 499.289) rotate(-10.31)" fill="#e6302d"/>
      <path id="Tracé_481" data-name="Tracé 481" d="M195.346,343.479a4.788,4.788,0,1,0,6.675-1.221,4.788,4.788,0,0,0-6.675,1.221Z" transform="translate(115.109 172.234)" fill="#e6302d"/>
      <path id="Tracé_482" data-name="Tracé 482" d="M77.181,296.97,117.65,73.92a8.178,8.178,0,0,0,1.166,0L148.57,211.9a8.452,8.452,0,1,0,8.493,1.665h0l42.773-75.539a8.493,8.493,0,1,0-3.136-1.776L153.927,211.8a8.826,8.826,0,0,0-3.234-.347L120.911,73.462a8.327,8.327,0,0,0,5.551-7.342l84.435-4.4a8.466,8.466,0,1,0,.541-4.843,8.6,8.6,0,0,0-.625,2.776l-84.463,4.4a8.48,8.48,0,1,0-14,7.813,8.327,8.327,0,0,0,3.123,1.763l-40.4,222.981a8.327,8.327,0,1,0,2.109.361Z" transform="translate(65.431 59.893)" fill="#e6302d"/>
      <rect id="Rectangle_76" data-name="Rectangle 76" width="9.507" height="3.164" transform="translate(385.455 261.769) rotate(-34.71)" fill="#e6302d"/>
      <rect id="Rectangle_77" data-name="Rectangle 77" width="9.507" height="3.164" transform="translate(401.067 250.942) rotate(-34.7)" fill="#e6302d"/>
      <rect id="Rectangle_78" data-name="Rectangle 78" width="9.507" height="3.164" transform="translate(463.591 207.657) rotate(-34.7)" fill="#e6302d"/>
      <rect id="Rectangle_79" data-name="Rectangle 79" width="9.507" height="3.164" transform="matrix(0.822, -0.569, 0.569, 0.822, 447.971, 218.515)" fill="#e6302d"/>
      <rect id="Rectangle_80" data-name="Rectangle 80" width="9.507" height="3.164" transform="translate(432.334 229.309) rotate(-34.7)" fill="#e6302d"/>
      <rect id="Rectangle_81" data-name="Rectangle 81" width="9.507" height="3.164" transform="translate(416.708 240.169) rotate(-34.69)" fill="#e6302d"/>
      <path id="Tracé_483" data-name="Tracé 483" d="M433.379,369.038a4.913,4.913,0,0,0-9.007-2.137L308.2,311.166a7.329,7.329,0,0,0,.513-2.651,7.411,7.411,0,0,0-2.679-5.676l2.109-3.261a9.714,9.714,0,0,0,4.33,1.388c11.658,1.388,23.593,1.54,34.89,4.274,24.176,5.829,43.022-4.774,64.311-18.736-9.631-8.327-17.945-15.988-26.771-22.941-2.179-1.735-6.134-2.054-9.146-1.763-15.516,1.471-31.032,3.053-46.464,5.107l83.338-128.914a7.453,7.453,0,1,0,3.22-14.17,7.314,7.314,0,0,0-4.413,1.485l-54.8-57.331a7.744,7.744,0,0,0,1.3-2.29,7.508,7.508,0,1,0-2.665,3.594l54.8,57.345A7.383,7.383,0,0,0,408.4,131.3a7.51,7.51,0,0,0,.25,1.86l-3.247,2.248,1.776,2.581,2.9-2.012a7.912,7.912,0,0,0,.958.971L326.808,267.186c-1,.139-2.012.25-3.025.4a14.767,14.767,0,0,0-9.354,6.495c-3.261,5.7-4.968,12.3-7.383,18.5-.944,2.415-.944,4.163-.236,5.551l-2.332,3.622a7.439,7.439,0,0,0-8.327,12.088l-29.144,36.167a5.039,5.039,0,0,0-1.485-.625,4.913,4.913,0,0,0-3.761.68L179.2,252.281a4.774,4.774,0,1,0-2.776,1.513,4.635,4.635,0,0,0,1.763-.611l82.561,97.786a4.434,4.434,0,0,0-.458.555L189.511,314.9a4.593,4.593,0,0,0,.264-2.345,4.788,4.788,0,1,0-4.039,5.454h0l17.528,45.8a4.788,4.788,0,1,0,1.9-.736l-17.542-45.8A4.621,4.621,0,0,0,188.942,316l70.779,36.611c-.069.208-.153.4-.208.625a4.9,4.9,0,0,0,1.388,4.621l-28.325,38.276a1.541,1.541,0,0,0-.264-.125l-.416-.18-.444-.139a2.691,2.691,0,0,0-.458-.1h-1.374l-.458.083a2.513,2.513,0,0,0-.43.125l-.486.18-.208.1-.167.1a2.928,2.928,0,0,0-.43.291l-.361.278a3.47,3.47,0,0,0-.319.319,2.9,2.9,0,0,0-.333.389l-.139.153-.111.208-.25.444c0,.139-.125.278-.167.416a4.153,4.153,0,0,0-.153.444.64.64,0,0,1-.083.375L97.582,392.895a4.736,4.736,0,1,0-.8,2.97,4.926,4.926,0,0,0,.763-1.887l127.915,6.578a1.5,1.5,0,0,0,0,.264q-.01.2,0,.4L150.43,427.9a4.636,4.636,0,0,0-1.54-1.79,4.8,4.8,0,1,0,1.957,2.928L226.011,402.4a1.154,1.154,0,0,1,.111.167,4.548,4.548,0,0,0,.278.43,3.669,3.669,0,0,0,.291.361l.319.319a2.9,2.9,0,0,0,.389.333l.153.139.194.111.458.25a3.707,3.707,0,0,0,.416.167,2.585,2.585,0,0,0,.43.139l.458.111h.6l.874,4.746,2-.361-.86-4.746h.139a1.4,1.4,0,0,1,.222-.083.694.694,0,0,1,.167-.111l.43-.278.361-.291a3.467,3.467,0,0,0,.319-.319,2.9,2.9,0,0,0,.333-.389,1.21,1.21,0,0,0,.125-.153,1.529,1.529,0,0,0,.125-.194c.083-.153.167-.305.236-.458s.125-.278.18-.416.1-.291.139-.43a2.688,2.688,0,0,0,.1-.458q0-.229,0-.458v-.93l-.083-.458a2.94,2.94,0,0,0-.125-.43,4.74,4.74,0,0,0-.18-.472.234.234,0,0,0-.1-.222,1.769,1.769,0,0,1-.1-.167,3.9,3.9,0,0,0-.291-.43,3.544,3.544,0,0,0-.278-.361l-.278-.291,28.395-38.29a4.454,4.454,0,0,0,1.388.527,4.913,4.913,0,0,0,4.621-8.188l29.144-36.153a7.411,7.411,0,0,0,8.216.1l53.015,59.163a4.788,4.788,0,0,0,.069,5.551L323.463,411.63a4.913,4.913,0,1,0-1.985,8.521l17.542,45.7a4.982,4.982,0,0,0-2.776,4.9,5.332,5.332,0,0,0,.291,1.388L270.948,523.2a5.44,5.44,0,0,0-2.581-1.832l7.508-52.321a4.843,4.843,0,0,0,5.038-3.65,5.551,5.551,0,0,0-3.65-6.537,4.871,4.871,0,0,0-6.231,3.442,5.551,5.551,0,0,0,3.567,6.509L267.1,521.032h-.458a4.9,4.9,0,0,0-4.719,5.371,5.426,5.426,0,0,0,5.468,5.065,4.885,4.885,0,0,0,4.7-5.357,5.293,5.293,0,0,0-.153-.958l65.7-51.169a5.345,5.345,0,0,0,.375.416L273.669,591.63l-.167-.069a4.9,4.9,0,0,0-3.456.194L226.4,520.643a5.051,5.051,0,0,0,1.513-1.721,4.9,4.9,0,0,0-2.318-6.745,5.44,5.44,0,0,0-7.12,2.234,4.9,4.9,0,0,0,2.318,6.745,5.173,5.173,0,0,0,1.291.416l11.852,82.27a5.3,5.3,0,0,0-2.859,1.388l-41.787-32.5a4.816,4.816,0,0,0-.68-6.176,5.468,5.468,0,0,0-7.48-.069,4.857,4.857,0,0,0-.1,7.12,5.551,5.551,0,0,0,7.411.111l41.732,32.447c-.083.125-.18.25-.264.389a4.913,4.913,0,0,0,2.332,6.759,5.44,5.44,0,0,0,7.119-2.234,4.913,4.913,0,0,0-2.331-6.759,4.537,4.537,0,0,0-.916-.333l-11.88-82.422a6.011,6.011,0,0,0,.971-.292l43.661,71.153A4.912,4.912,0,0,0,267.215,595a5.551,5.551,0,0,0,3.664,6.537,4.941,4.941,0,0,0,3.47-.194l20.623,33.488a4.927,4.927,0,0,0-1.6,2.637,5.468,5.468,0,0,0,3.65,6.523,4.844,4.844,0,0,0,6.231-3.442,5.551,5.551,0,0,0-3.65-6.523,4.871,4.871,0,0,0-3.47.194l-20.581-33.544a4.816,4.816,0,0,0,1.638-2.581,5.44,5.44,0,0,0-1.61-5.329l64.367-117.243a4.885,4.885,0,0,0,6.537-5.079,5.44,5.44,0,0,0-5.468-5.065,6.742,6.742,0,0,0-.763.1l-17.584-45.8c.167-.1.347-.18.513-.291a4.913,4.913,0,0,0,1.18-6.856h0L359.3,380.39a4.913,4.913,0,1,0,2.637-8.646,4.844,4.844,0,0,0-1.776.555l-53.07-59.121a8.621,8.621,0,0,0,.625-.9L423.83,368.025a4.913,4.913,0,1,0,9.548,1.013Z" transform="translate(73.827 61.435)" fill="#e6302d"/>
      <path id="Tracé_484" data-name="Tracé 484" d="M243.756,199.53a7.439,7.439,0,0,0,2.512-14.461l16.5-74.359a7.439,7.439,0,1,0-1.846-.4l-16.487,74.359a5.655,5.655,0,0,0-.68,0,7.466,7.466,0,1,0,0,14.933Z" transform="translate(131.315 77.006)" fill="#e6302d"/>
      <rect id="Rectangle_82" data-name="Rectangle 82" width="333.382" height="830.331" fill="none"/>
      <path id="Tracé_485" data-name="Tracé 485" d="M87.74,226.5c8.6-7.411,16.806-15.155,25.813-21.8,2.776-1.985,7.7-1.5,11.561-1.152,12.865,1.152,25.661,3.428,38.54,4.011,11.311.527,18.555,4.621,21.123,16.126,1.124,4.982,3.261,9.715,4.885,14.433C161.142,253.011,110.306,247.4,87.74,226.5Z" transform="translate(73.705 118.647)" fill="#e6302d"/>
    </g>
  </g>
</svg>
