<svg id="Calque_1" data-name="Calque 1" xmlns="http://www.w3.org/2000/svg" viewBox="0 0 993.58 356.76"><defs><style>.cls-1{fill:#1d1d1b;}.cls-2,.cls-4{opacity:0.49;}.cls-3{fill:#e6302d;}</style></defs><title>infographies</title><path d="M367.22,296.32a1.64,1.64,0,0,1-1.65-1.64V278.79a1.65,1.65,0,1,1,3.3,0v15.89A1.64,1.64,0,0,1,367.22,296.32Zm0-31.77a1.64,1.64,0,0,1-1.65-1.65V247a1.65,1.65,0,1,1,3.3,0V262.9A1.65,1.65,0,0,1,367.22,264.55Zm0-31.77a1.64,1.64,0,0,1-1.65-1.65V215.25a1.65,1.65,0,1,1,3.3,0v15.88A1.65,1.65,0,0,1,367.22,232.78Zm0-31.77a1.65,1.65,0,0,1-1.65-1.65V183.48a1.65,1.65,0,1,1,3.3,0v15.88A1.65,1.65,0,0,1,367.22,201Zm0-31.77a1.65,1.65,0,0,1-1.65-1.65V151.71a1.65,1.65,0,1,1,3.3,0v15.88A1.65,1.65,0,0,1,367.22,169.24Zm0-31.77a1.65,1.65,0,0,1-1.65-1.65V119.94a1.65,1.65,0,1,1,3.3,0v15.88A1.65,1.65,0,0,1,367.22,137.47Z"/><polygon points="353.72 130.87 356.14 133.12 367.21 121.2 378.29 133.12 380.71 130.87 367.21 116.36 353.72 130.87"/><polygon points="353.72 293.43 356.14 291.18 367.21 303.09 378.29 291.18 380.71 293.43 367.21 307.94 353.72 293.43"/><path d="M316,86.87a4.82,4.82,0,0,1-1.28-3.56v-.78l2.94-.14v.54c0,1.6.62,2.4,1.85,2.4a1.69,1.69,0,0,0,1.43-.61,2.72,2.72,0,0,0,.48-1.73v-3.4a2.75,2.75,0,0,0-.49-1.74,1.73,1.73,0,0,0-1.42-.6,1.76,1.76,0,0,0-1.25.44,2,2,0,0,0-.57,1.26l0,.4-2.83-.11.64-11.58h8.26v2.89h-5.58l-.26,4.76H318a3,3,0,0,1,2.4-.89,3.74,3.74,0,0,1,3,1.3,5.52,5.52,0,0,1,1.1,3.66v3.81a5,5,0,0,1-1.29,3.66,4.81,4.81,0,0,1-3.59,1.31A4.87,4.87,0,0,1,316,86.87Z"/><path d="M334.51,68.75a5.19,5.19,0,0,1,1.31,3.73V83.05a5.21,5.21,0,0,1-1.31,3.74,5.48,5.48,0,0,1-7.25,0A5.21,5.21,0,0,1,326,83.05V72.48a5.19,5.19,0,0,1,1.31-3.73,5.45,5.45,0,0,1,7.25,0Zm-5,2a2.69,2.69,0,0,0-.48,1.72V83a2.69,2.69,0,0,0,.48,1.72,1.69,1.69,0,0,0,1.4.59,1.71,1.71,0,0,0,1.4-.59,2.75,2.75,0,0,0,.47-1.72V72.51a2.75,2.75,0,0,0-.47-1.72,1.71,1.71,0,0,0-1.4-.59A1.69,1.69,0,0,0,329.49,70.79Z"/><path d="M346.32,68.75a5.19,5.19,0,0,1,1.31,3.73V83.05a5.21,5.21,0,0,1-1.31,3.74,5.48,5.48,0,0,1-7.25,0,5.17,5.17,0,0,1-1.31-3.74V72.48a5.14,5.14,0,0,1,1.31-3.73,5.45,5.45,0,0,1,7.25,0Zm-5,2a2.75,2.75,0,0,0-.47,1.72V83a2.75,2.75,0,0,0,.47,1.72,1.71,1.71,0,0,0,1.4.59,1.69,1.69,0,0,0,1.4-.59,2.69,2.69,0,0,0,.48-1.72V72.51a2.69,2.69,0,0,0-.48-1.72,1.69,1.69,0,0,0-1.4-.59A1.71,1.71,0,0,0,341.29,70.79Z"/><path d="M367.61,87.87h-3.06v-14h-.06L362,85h-1.82l-2.54-11.14h-.06v14h-2.89V67.66h4l2.39,10.86h.06l2.37-10.86h4.13Z"/><path d="M378.78,70.49h-5.54v5.72h4.47V79h-4.47v6h5.54v2.83h-8.6V67.66h8.6Zm-2.86-4h-2.25l-2.51-3.18h3.09Z"/><path d="M388.91,70.55h-3.26V87.87h-3.06V70.55h-3.26V67.66h9.58Z"/><path d="M397.05,87.87l-2.42-8.54h-1.42v8.54h-3.06V67.66h4.42A5.08,5.08,0,0,1,398.35,69a5.14,5.14,0,0,1,1.3,3.79v1.45q0,3.19-2.17,4.44l2.8,9.21Zm-3.84-17.38v6h1.24a2,2,0,0,0,1.62-.61,2.81,2.81,0,0,0,.52-1.88V73a2.8,2.8,0,0,0-.52-1.87,2,2,0,0,0-1.62-.61Z"/><path d="M410.39,70.49h-5.54v5.72h4.47V79h-4.47v6h5.54v2.83h-8.6V67.66h8.6Z"/><path d="M419.19,68.56a4.52,4.52,0,0,1,1.19,3.35v.52l-2.95.28V72a1.9,1.9,0,0,0-.4-1.31,1.48,1.48,0,0,0-1.16-.45,1.46,1.46,0,0,0-1.15.45,1.9,1.9,0,0,0-.41,1.31v.26a3.44,3.44,0,0,0,.55,1.81,10.17,10.17,0,0,0,2,2.12,14,14,0,0,1,3,3.23,6.25,6.25,0,0,1,.86,3.24v1A4.47,4.47,0,0,1,419.5,87a5.81,5.81,0,0,1-7,0,4.44,4.44,0,0,1-1.23-3.35V82.27L414.2,82v1.45c0,1.26.58,1.9,1.73,1.9s1.73-.64,1.73-1.9v-.67a3.38,3.38,0,0,0-.57-1.86A11.36,11.36,0,0,0,415,78.75a13.51,13.51,0,0,1-2.92-3.19,6.24,6.24,0,0,1-.84-3.22v-.43a4.78,4.78,0,0,1,7.94-3.35Z"/><path d="M323.11,356.4h-3.06V340.87h-4.22v-2.14a9.52,9.52,0,0,0,3.29-.79,3.5,3.5,0,0,0,1.85-1.75h2.14Z"/><path d="M326.44,355.4a4.78,4.78,0,0,1-1.28-3.56v-.78l2.94-.15v.55c0,1.6.62,2.4,1.85,2.4a1.7,1.7,0,0,0,1.43-.61,2.78,2.78,0,0,0,.47-1.73v-3.41a2.66,2.66,0,0,0-.49-1.73,1.73,1.73,0,0,0-1.41-.61,1.77,1.77,0,0,0-1.26.45,2,2,0,0,0-.56,1.26l0,.4-2.83-.11.64-11.58h8.25v2.89h-5.57l-.26,4.76h.06a3,3,0,0,1,2.39-.9,3.8,3.8,0,0,1,3,1.3,5.54,5.54,0,0,1,1.09,3.67v3.81a5,5,0,0,1-1.28,3.65,5.6,5.6,0,0,1-7.19,0Z"/><path d="M344.92,337.27a5.21,5.21,0,0,1,1.31,3.74v10.57a5.19,5.19,0,0,1-1.31,3.73,5.45,5.45,0,0,1-7.25,0,5.14,5.14,0,0,1-1.31-3.73V341a5.17,5.17,0,0,1,1.31-3.74,5.48,5.48,0,0,1,7.25,0Zm-5,2.05a2.75,2.75,0,0,0-.47,1.72v10.51a2.75,2.75,0,0,0,.47,1.72,1.71,1.71,0,0,0,1.4.59,1.69,1.69,0,0,0,1.4-.59,2.69,2.69,0,0,0,.48-1.72V341a2.69,2.69,0,0,0-.48-1.72,1.69,1.69,0,0,0-1.4-.59A1.71,1.71,0,0,0,339.89,339.32Z"/><path d="M366.21,356.4h-3.06v-14h-.06l-2.54,11.14h-1.82l-2.54-11.14h-.06v14h-2.89V336.19h4L359.65,347h.06l2.37-10.85h4.13Z"/><path d="M377.38,339h-5.54v5.71h4.47v2.83h-4.47v6h5.54v2.83h-8.61V336.19h8.61Zm-2.86-4h-2.25l-2.51-3.18h3.09Z"/><path d="M387.51,339.08h-3.26V356.4h-3.06V339.08h-3.26v-2.89h9.58Z"/><path d="M395.65,356.4l-2.42-8.55h-1.42v8.55h-3.06V336.19h4.42a4.57,4.57,0,0,1,5.08,5.11v1.44q0,3.21-2.17,4.45l2.8,9.21ZM391.81,339v6h1.24a2,2,0,0,0,1.62-.6,2.83,2.83,0,0,0,.52-1.88v-1a2.78,2.78,0,0,0-.52-1.87,2,2,0,0,0-1.62-.61Z"/><path d="M409,339h-5.55v5.71h4.48v2.83h-4.48v6H409v2.83h-8.61V336.19H409Z"/><path d="M417.79,337.08a4.54,4.54,0,0,1,1.19,3.35V341l-3,.29v-.75a1.88,1.88,0,0,0-.4-1.31,1.48,1.48,0,0,0-1.16-.45,1.46,1.46,0,0,0-1.15.45,1.89,1.89,0,0,0-.41,1.31v.26a3.44,3.44,0,0,0,.55,1.81,10.42,10.42,0,0,0,2,2.12,14,14,0,0,1,3,3.23,6.22,6.22,0,0,1,.86,3.23v1a4.46,4.46,0,0,1-1.22,3.35,5.77,5.77,0,0,1-7,0,4.42,4.42,0,0,1-1.23-3.35V350.8l2.95-.29V352c0,1.27.58,1.91,1.73,1.91s1.73-.64,1.73-1.91v-.66a3.33,3.33,0,0,0-.57-1.86,11.07,11.07,0,0,0-2.08-2.15,13.51,13.51,0,0,1-2.92-3.19,6.26,6.26,0,0,1-.84-3.22v-.44a4.54,4.54,0,0,1,1.19-3.35,5.42,5.42,0,0,1,6.75,0Z"/><path class="cls-1" d="M286.31,28.25H282L281.13,22h-4.64l-.91,6.29h-4.19L276.18.54h5.34ZM278.75,6.48l-1.7,11.68h3.52l-1.7-11.68Z"/><path class="cls-1" d="M292.53,24.29h7v4H288.33V.54h4.2Z"/><path class="cls-1" d="M310.42,4.5H306V28.25h-4.2V4.5h-4.47v-4h13.14Z"/><path class="cls-1" d="M316.32,28.25h-4.19V.54h4.19Z"/><path class="cls-1" d="M331.17,4.5H326.7V28.25h-4.2V4.5H318v-4h13.15Z"/><path class="cls-1" d="M345.62,22A6.61,6.61,0,0,1,343.9,27a6.57,6.57,0,0,1-4.81,1.7,6.43,6.43,0,0,1-4.73-1.7A6.62,6.62,0,0,1,332.63,22V.54h4V21.92c0,1.85.79,2.77,2.38,2.77s2.37-.92,2.37-2.77V.54h4.2Z"/><path class="cls-1" d="M360.11,2.34a7.09,7.09,0,0,1,1.78,5.21V21.24a7.09,7.09,0,0,1-1.78,5.21,7,7,0,0,1-5.19,1.8h-6V.54h6A7,7,0,0,1,360.11,2.34Zm-7,2.08v20h1.66a2.73,2.73,0,0,0,2.22-.83,3.85,3.85,0,0,0,.71-2.57V7.82A3.85,3.85,0,0,0,357,5.25a2.77,2.77,0,0,0-2.22-.83Z"/><path class="cls-1" d="M376.78,4.42h-7.6v7.84h6.13v3.88h-6.13v8.23h7.6v3.88H365V.54h11.8Z"/><path class="cls-1" d="M397.09,2.34a7.14,7.14,0,0,1,1.78,5.21V21.24a7.14,7.14,0,0,1-1.78,5.21,7,7,0,0,1-5.19,1.8h-6V.54h6A7,7,0,0,1,397.09,2.34Zm-7,2.08v20h1.66a2.76,2.76,0,0,0,2.22-.83,3.9,3.9,0,0,0,.71-2.57V7.82A3.9,3.9,0,0,0,394,5.25a2.79,2.79,0,0,0-2.22-.83Z"/><path class="cls-1" d="M413.75,4.42h-7.6v7.84h6.14v3.88h-6.14v8.23h7.6v3.88H402V.54h11.79Z"/><path class="cls-1" d="M431.06,28.25h-5.43L421,.54h4.28l3.12,21.14h.08L431.53.54h4.2Z"/><path class="cls-1" d="M448.85,2a7.13,7.13,0,0,1,1.8,5.13V21.64a7.12,7.12,0,0,1-1.8,5.13,7.51,7.51,0,0,1-9.94,0,7.12,7.12,0,0,1-1.8-5.13V7.15A7.13,7.13,0,0,1,438.91,2a7.51,7.51,0,0,1,9.94,0ZM442,4.83a3.75,3.75,0,0,0-.65,2.36V21.6A3.73,3.73,0,0,0,442,24a2.33,2.33,0,0,0,1.92.81A2.31,2.31,0,0,0,445.8,24a3.67,3.67,0,0,0,.66-2.36V7.19a3.69,3.69,0,0,0-.66-2.36A2.31,2.31,0,0,0,443.88,4,2.33,2.33,0,0,0,442,4.83Z"/><path class="cls-1" d="M457.94,24.29h7v4h-11.2V.54h4.2Z"/><path class="cls-2" d="M107.71,183.43,139.92,285s74.9-22.25,74.9-101.59H108.52"/><path d="M108.52,291.38a108,108,0,1,1,108-107.95A108.07,108.07,0,0,1,108.52,291.38Zm0-212.61A104.66,104.66,0,1,0,213.17,183.43,104.77,104.77,0,0,0,108.52,78.77Z"/><circle cx="108.52" cy="183.43" r="6.31"/><path d="M108.52,270.53a1.46,1.46,0,0,1,0-2.92,84,84,0,0,0,44-12.38,1.45,1.45,0,0,1,1.52,2.48A87,87,0,0,1,108.52,270.53Z"/><path d="M108.52,237.74a1.46,1.46,0,1,1,0-2.91,51.6,51.6,0,0,0,50.9-44.19,1.46,1.46,0,0,1,2.89.41A54.53,54.53,0,0,1,108.52,237.74Z"/><path d="M212.72,184.4h-1.26v-1.94h1.26Zm-6.12,0h-4.85v-1.94h4.85Zm-9.71,0H192v-1.94h4.85Zm-9.71,0h-4.86v-1.94h4.86Zm-9.71,0h-4.86v-1.94h4.86Zm-9.71,0H162.9v-1.94h4.86Zm-9.71,0h-4.86v-1.94h4.86Zm-9.71,0h-4.86v-1.94h4.86Zm-9.72,0h-4.85v-1.94h4.85Zm-9.71,0h-4.85v-1.94h4.85Zm-9.71,0h-4.85v-1.94h4.85Z"/><polygon points="206.28 191.37 204.96 189.95 211.97 183.43 204.96 176.91 206.28 175.49 214.82 183.43 206.28 191.37"/><path class="cls-3" d="M175,235.19a1,1,0,0,1-.49-.13,1,1,0,0,1-.35-1.33l8.19-14a1,1,0,0,1,1.68,1l-8.19,14A1,1,0,0,1,175,235.19Z"/><path class="cls-3" d="M185.69,232.07a1,1,0,0,1-.49-.13l-13.08-7.65a1,1,0,1,1,1-1.67l13.08,7.64a1,1,0,0,1-.49,1.81Z"/><path d="M55.17,339.09a4.53,4.53,0,0,1,1.25,3.4v.75a8.68,8.68,0,0,1-.55,3,23,23,0,0,1-2,3.8l-3.4,5.45h5.92v2.89H47v-2.6l4.54-7.3A13.27,13.27,0,0,0,53,345.61a8,8,0,0,0,.39-2.48v-.41c0-1.34-.57-2-1.71-2a1.5,1.5,0,0,0-1.28.58A3.13,3.13,0,0,0,50,343.1v1L47,344v-1.39a4.33,4.33,0,0,1,4.71-4.71A4.72,4.72,0,0,1,55.17,339.09Z"/><path d="M71.21,339.25A5.14,5.14,0,0,1,72.52,343v10.57a5.15,5.15,0,0,1-1.31,3.74,5.47,5.47,0,0,1-7.24,0,5.16,5.16,0,0,1-1.32-3.74V343A5.15,5.15,0,0,1,64,339.25a5.44,5.44,0,0,1,7.24,0Zm-5,2.05a2.64,2.64,0,0,0-.48,1.71v10.51a2.67,2.67,0,0,0,.48,1.72,2,2,0,0,0,2.8,0,2.67,2.67,0,0,0,.47-1.72V343A2.64,2.64,0,0,0,69,341.3a1.93,1.93,0,0,0-2.8,0Z"/><path d="M83,339.25A5.19,5.19,0,0,1,84.33,343v10.57A5.2,5.2,0,0,1,83,357.29a5.48,5.48,0,0,1-7.25,0,5.2,5.2,0,0,1-1.31-3.74V343a5.19,5.19,0,0,1,1.31-3.73,5.45,5.45,0,0,1,7.25,0Zm-5,2.05a2.64,2.64,0,0,0-.48,1.71v10.51a2.67,2.67,0,0,0,.48,1.72,1.69,1.69,0,0,0,1.4.59,1.71,1.71,0,0,0,1.4-.59,2.73,2.73,0,0,0,.47-1.72V343a2.7,2.7,0,0,0-.47-1.71,1.69,1.69,0,0,0-1.4-.6A1.67,1.67,0,0,0,78,341.3Z"/><path d="M94.83,339.25A5.19,5.19,0,0,1,96.14,343v10.57a5.2,5.2,0,0,1-1.31,3.74,5.48,5.48,0,0,1-7.25,0,5.15,5.15,0,0,1-1.31-3.74V343a5.14,5.14,0,0,1,1.31-3.73,5.45,5.45,0,0,1,7.25,0Zm-5,2.05a2.64,2.64,0,0,0-.47,1.71v10.51a2.67,2.67,0,0,0,.47,1.72,1.71,1.71,0,0,0,1.4.59,1.69,1.69,0,0,0,1.4-.59,2.67,2.67,0,0,0,.48-1.72V343a2.64,2.64,0,0,0-.48-1.71,1.67,1.67,0,0,0-1.4-.6A1.69,1.69,0,0,0,89.8,341.3Z"/><path d="M116.12,358.37h-3.06v-14H113l-2.54,11.14h-1.82l-2.54-11.14H106v14h-2.89V338.16h4L109.56,349h.06L112,338.16h4.13Z"/><path d="M127.29,341h-5.55v5.72h4.48v2.83h-4.48v6h5.55v2.83h-8.61V338.16h8.61Zm-2.86-4h-2.25l-2.51-3.18h3.08Z"/><path d="M137.42,341.05h-3.26v17.32H131.1V341.05h-3.26v-2.89h9.58Z"/><path d="M145.56,358.37l-2.42-8.54h-1.42v8.54h-3.06V338.16h4.42a5.08,5.08,0,0,1,3.78,1.32,5.14,5.14,0,0,1,1.3,3.79v1.45c0,2.13-.72,3.62-2.17,4.44l2.8,9.21ZM141.72,341v6H143a2,2,0,0,0,1.62-.61,2.81,2.81,0,0,0,.52-1.88v-1a2.8,2.8,0,0,0-.52-1.87A2,2,0,0,0,143,341Z"/><path d="M158.9,341h-5.55v5.72h4.48v2.83h-4.48v6h5.55v2.83h-8.61V338.16h8.61Z"/><path d="M167.7,339.06a4.52,4.52,0,0,1,1.19,3.35v.52l-2.95.29v-.75a1.91,1.91,0,0,0-.4-1.32,1.48,1.48,0,0,0-1.16-.45,1.46,1.46,0,0,0-1.15.45,1.91,1.91,0,0,0-.41,1.32v.25a3.44,3.44,0,0,0,.55,1.81,10.17,10.17,0,0,0,2,2.12,14,14,0,0,1,3,3.23,6.25,6.25,0,0,1,.86,3.24v1a4.44,4.44,0,0,1-1.23,3.35,5.8,5.8,0,0,1-7,0,4.44,4.44,0,0,1-1.23-3.35v-1.36l3-.29v1.45c0,1.27.58,1.9,1.73,1.9s1.73-.63,1.73-1.9v-.67a3.31,3.31,0,0,0-.58-1.86,10.93,10.93,0,0,0-2.07-2.15,13.32,13.32,0,0,1-2.92-3.19,6.24,6.24,0,0,1-.84-3.22v-.43a4.78,4.78,0,0,1,7.94-3.35Z"/><path class="cls-1" d="M24.83,30.21,21.51,18.49H19.57V30.21h-4.2V2.5h6.06a7,7,0,0,1,5.18,1.8,7.09,7.09,0,0,1,1.78,5.21v2c0,2.93-1,5-3,6.1l3.84,12.63ZM19.57,6.38v8.23h1.7a2.76,2.76,0,0,0,2.22-.83,3.9,3.9,0,0,0,.71-2.57V9.78a3.9,3.9,0,0,0-.71-2.57,2.76,2.76,0,0,0-2.22-.83Z"/><path class="cls-1" d="M44.75,30.21H40.47l-.91-6.29H34.93L34,30.21h-4.2L34.61,2.5H40ZM37.18,8.44l-1.7,11.68H39L37.3,8.44Z"/><path class="cls-1" d="M52.74,17.7V30.21H48.55V17.66L42.73,2.5h4.43l3.52,9.82h.08L54.13,2.5h4.35Z"/><path class="cls-1" d="M70.18,4A7.13,7.13,0,0,1,72,9.11V23.6a7.13,7.13,0,0,1-1.8,5.13,6.56,6.56,0,0,1-5,1.88,6.55,6.55,0,0,1-5-1.88,7.09,7.09,0,0,1-1.81-5.13V9.11A7.09,7.09,0,0,1,60.25,4a6.55,6.55,0,0,1,5-1.88A6.56,6.56,0,0,1,70.18,4ZM63.29,6.79a3.73,3.73,0,0,0-.65,2.36V23.56a3.73,3.73,0,0,0,.65,2.36,2.33,2.33,0,0,0,1.92.81,2.31,2.31,0,0,0,1.92-.81,3.67,3.67,0,0,0,.66-2.36V9.15a3.67,3.67,0,0,0-.66-2.36A2.31,2.31,0,0,0,65.21,6,2.33,2.33,0,0,0,63.29,6.79Z"/><path class="cls-1" d="M88.73,30.21H84.61l-5.5-18.37H79V30.21h-4V2.5h4.67l5,16.51h.08V2.5h4Z"/><path class="cls-1" d="M110,4.3a7.09,7.09,0,0,1,1.78,5.21V23.2A7.09,7.09,0,0,1,110,28.41a7,7,0,0,1-5.19,1.8h-6V2.5h6A7,7,0,0,1,110,4.3Zm-7,2.08v20h1.67a2.76,2.76,0,0,0,2.21-.83,3.85,3.85,0,0,0,.72-2.57V9.78a3.85,3.85,0,0,0-.72-2.57,2.73,2.73,0,0,0-2.21-.83Z"/><path class="cls-1" d="M118.66,6.54l-2.26,4.83h-2.17l1.42-4.44h-1.42V2.5h4.43Z"/><path class="cls-1" d="M133.51,30.21h-4.28l-.91-6.29h-4.63l-.91,6.29h-4.2L123.37,2.5h5.35ZM126,8.44l-1.71,11.68h3.53l-1.7-11.68Z"/><path class="cls-1" d="M146.16,3.86a6.71,6.71,0,0,1,1.72,4.89v2.5l-4,.19V9.19q0-3.21-2.37-3.21a2.23,2.23,0,0,0-1.77.71,3.15,3.15,0,0,0-.61,2.1V23.92A3.1,3.1,0,0,0,139.7,26a2.2,2.2,0,0,0,1.77.72q2.37,0,2.37-3.21V20.43l4,.2V24a6.71,6.71,0,0,1-1.72,4.89,6.44,6.44,0,0,1-4.81,1.76,6.32,6.32,0,0,1-4.75-1.74A6.73,6.73,0,0,1,134.89,24V8.75a6.73,6.73,0,0,1,1.71-4.91,6.32,6.32,0,0,1,4.75-1.74A6.44,6.44,0,0,1,146.16,3.86Z"/><path class="cls-1" d="M161.78,6.46H157.3V30.21h-4.19V6.46h-4.48v-4h13.15Z"/><path class="cls-1" d="M167.67,30.21h-4.19V2.5h4.19Z"/><path class="cls-1" d="M182.5,4a7.13,7.13,0,0,1,1.8,5.13V23.6a7.13,7.13,0,0,1-1.8,5.13,7.51,7.51,0,0,1-9.94,0,7.13,7.13,0,0,1-1.8-5.13V9.11A7.13,7.13,0,0,1,172.56,4a7.51,7.51,0,0,1,9.94,0Zm-6.89,2.81A3.73,3.73,0,0,0,175,9.15V23.56a3.73,3.73,0,0,0,.65,2.36,2.33,2.33,0,0,0,1.92.81,2.31,2.31,0,0,0,1.92-.81,3.67,3.67,0,0,0,.66-2.36V9.15a3.67,3.67,0,0,0-.66-2.36A2.31,2.31,0,0,0,177.53,6,2.33,2.33,0,0,0,175.61,6.79Z"/><path class="cls-1" d="M201.05,30.21h-4.12l-5.5-18.37h-.08V30.21h-4V2.5h4.67L197,19h.08V2.5h4Z"/><path d="M924.33,242.83A51.62,51.62,0,1,1,976,191.22,51.67,51.67,0,0,1,924.33,242.83Zm0-99.78a48.17,48.17,0,1,0,48.17,48.17A48.22,48.22,0,0,0,924.33,143.05Z"/><path d="M924.33,192.94a1.75,1.75,0,0,1-1.42-.74l-15.84-22.87a1.73,1.73,0,0,1,2.84-2l15.84,22.87a1.74,1.74,0,0,1-.43,2.41A1.79,1.79,0,0,1,924.33,192.94Z"/><path d="M924.33,146.1a1.72,1.72,0,0,1-1.72-1.72V127.49a1.73,1.73,0,1,1,3.45,0v16.89A1.72,1.72,0,0,1,924.33,146.1Z"/><path d="M932.78,131H915.89a3,3,0,0,1,0-6h16.89a3,3,0,0,1,0,6Z"/><path d="M924.74,193.56a1.73,1.73,0,0,1-.51-3.38l17.69-5.45a1.73,1.73,0,0,1,1,3.31l-17.69,5.44A1.51,1.51,0,0,1,924.74,193.56Z"/><path d="M973.68,192.94H962.46a1.73,1.73,0,0,1,0-3.45h11.22a1.73,1.73,0,1,1,0,3.45Z"/><path d="M885.66,192.94H874.44a1.73,1.73,0,1,1,0-3.45h11.22a1.73,1.73,0,0,1,0,3.45Z"/><path d="M924.33,242.83a1.72,1.72,0,0,1-1.72-1.72V229.89a1.73,1.73,0,1,1,3.45,0v11.22A1.72,1.72,0,0,1,924.33,242.83Z"/><path d="M924.33,154.27a1.73,1.73,0,0,1-1.72-1.73V141.32a1.73,1.73,0,0,1,3.45,0v11.22A1.73,1.73,0,0,1,924.33,154.27Z"/><path d="M885.89,351.17h1.3V354h-1.3v4.27h-2.83V354h-5.91v-2.54l5.94-13.4h2.8ZM883,344l-3.09,7.22h3.14V344Z"/><path d="M896.18,339.15a5.42,5.42,0,0,1,1.21,3.73v10.57a5.45,5.45,0,0,1-1.21,3.74,4.77,4.77,0,0,1-6.69,0,5.5,5.5,0,0,1-1.21-3.74V342.88a5.47,5.47,0,0,1,1.21-3.73,4.74,4.74,0,0,1,6.69,0Zm-4.64,2a2.89,2.89,0,0,0-.43,1.72v10.51a2.89,2.89,0,0,0,.43,1.72,1.54,1.54,0,0,0,1.3.59,1.52,1.52,0,0,0,1.29-.59,2.89,2.89,0,0,0,.44-1.72V342.91a2.89,2.89,0,0,0-.44-1.72,1.52,1.52,0,0,0-1.29-.59A1.54,1.54,0,0,0,891.54,341.19Z"/><path d="M915.82,358.27H913v-14h0l-2.35,11.14h-1.68l-2.34-11.14h-.05v14h-2.67V338.06h3.71l2.21,10.86h.05L912,338.06h3.81Z"/><path d="M921,358.27h-2.83V338.06H921Z"/><path d="M932.57,358.27H929.8l-3.7-13.39h-.05v13.39h-2.66V338.06h3.14l3.33,12h0v-12h2.66Z"/><path d="M943.52,353.74a5,5,0,0,1-1.16,3.58,4.77,4.77,0,0,1-6.42,0,5.07,5.07,0,0,1-1.15-3.58V338.06h2.71v15.59c0,1.35.53,2,1.6,2s1.6-.67,1.6-2V338.06h2.82Z"/><path d="M953.35,341h-3v17.32h-2.82V341h-3v-2.89h8.84Z"/><path d="M962.43,340.89h-5.11v5.72h4.13v2.83h-4.13v6h5.11v2.83h-7.94V338.06h7.94Z"/><path d="M970.55,339a4.75,4.75,0,0,1,1.1,3.35v.52l-2.72.28v-.75a2,2,0,0,0-.37-1.31,1.32,1.32,0,0,0-1.07-.45,1.29,1.29,0,0,0-1.06.45,2,2,0,0,0-.38,1.31v.26a3.58,3.58,0,0,0,.51,1.81,9.93,9.93,0,0,0,1.86,2.12,13.85,13.85,0,0,1,2.75,3.23A6.62,6.62,0,0,1,972,353v1a4.64,4.64,0,0,1-1.14,3.35,5,5,0,0,1-6.47,0,4.68,4.68,0,0,1-1.13-3.35v-1.36l2.72-.29v1.45c0,1.27.53,1.9,1.59,1.9s1.6-.63,1.6-1.9v-.67a3.51,3.51,0,0,0-.53-1.86,10.8,10.8,0,0,0-1.92-2.15A13.3,13.3,0,0,1,964,346a6.72,6.72,0,0,1-.77-3.22v-.43a4.74,4.74,0,0,1,1.09-3.35,4.67,4.67,0,0,1,6.23,0Z"/><path class="cls-1" d="M871.42,28.25h-4.28L866.23,22H861.6l-.91,6.29h-4.2L861.29.54h5.34ZM863.86,6.48l-1.7,11.68h3.52L864,6.48Z"/><path class="cls-1" d="M886,22A6.61,6.61,0,0,1,884.31,27a6.57,6.57,0,0,1-4.81,1.7,6.43,6.43,0,0,1-4.73-1.7A6.62,6.62,0,0,1,873,22V.54h4V21.92c0,1.85.79,2.77,2.38,2.77s2.37-.92,2.37-2.77V.54H886Z"/><path class="cls-1" d="M900.64,4.5h-4.48V28.25H892V4.5h-4.48v-4h13.15Z"/><path class="cls-1" d="M913.52,2a7.09,7.09,0,0,1,1.81,5.13V21.64a7.08,7.08,0,0,1-1.81,5.13,7.5,7.5,0,0,1-9.93,0,7.12,7.12,0,0,1-1.8-5.13V7.15A7.13,7.13,0,0,1,903.59,2a7.5,7.5,0,0,1,9.93,0Zm-6.88,2.81A3.69,3.69,0,0,0,906,7.19V21.6a3.67,3.67,0,0,0,.66,2.36,2.31,2.31,0,0,0,1.92.81,2.33,2.33,0,0,0,1.92-.81,3.73,3.73,0,0,0,.65-2.36V7.19a3.75,3.75,0,0,0-.65-2.36A2.33,2.33,0,0,0,908.56,4,2.31,2.31,0,0,0,906.64,4.83Z"/><path class="cls-1" d="M932.07,28.25H928L922.45,9.88h-.08V28.25h-4V.54h4.68L928,17.05h.08V.54h4Z"/><path class="cls-1" d="M946.9,2a7.13,7.13,0,0,1,1.8,5.13V21.64a7.12,7.12,0,0,1-1.8,5.13,7.51,7.51,0,0,1-9.94,0,7.12,7.12,0,0,1-1.8-5.13V7.15A7.13,7.13,0,0,1,937,2a7.51,7.51,0,0,1,9.94,0ZM940,4.83a3.75,3.75,0,0,0-.65,2.36V21.6A3.73,3.73,0,0,0,940,24a2.33,2.33,0,0,0,1.92.81,2.31,2.31,0,0,0,1.92-.81,3.67,3.67,0,0,0,.65-2.36V7.19a3.69,3.69,0,0,0-.65-2.36A2.31,2.31,0,0,0,941.93,4,2.33,2.33,0,0,0,940,4.83Z"/><path class="cls-1" d="M969.57,28.25h-4.2V9h-.08l-3.48,15.28h-2.5L955.83,9h-.08V28.25h-4V.54h5.5l3.29,14.89h.08L963.9.54h5.67Z"/><path class="cls-1" d="M977.29,28.25h-4.2V.54h4.2Z"/><path class="cls-1" d="M992.61,4.42H985v7.84h6.14v3.88H985v8.23h7.61v3.88h-11.8V.54h11.8Z"/><path d="M563.56,313.45A1.55,1.55,0,0,1,562,311.9V125.48a1.55,1.55,0,0,1,3.1,0V311.9A1.56,1.56,0,0,1,563.56,313.45Z"/><polygon points="550.87 135.76 553.14 137.87 563.55 126.67 573.97 137.87 576.24 135.76 563.55 122.12 550.87 135.76"/><path d="M776.67,313.62H563.56a1.73,1.73,0,1,1,0-3.45H776.67a1.73,1.73,0,1,1,0,3.45Z"/><polygon points="765.23 297.78 762.88 300.31 775.35 311.89 762.88 323.48 765.23 326.01 780.41 311.89 765.23 297.78"/><path d="M671,185.23h-3.46v-19h-4.77v-2.62a9.83,9.83,0,0,0,3.72-1,4.06,4.06,0,0,0,2.09-2.14H671Z"/><path d="M677.8,184.87l-1.87,4.32h-1.79l1.17-4h-1.17v-4h3.66Z"/><path d="M681.37,184a6.18,6.18,0,0,1-1.45-4.37v-.95l3.33-.18v.67c0,2,.7,2.94,2.09,2.94a1.88,1.88,0,0,0,1.62-.74,3.6,3.6,0,0,0,.54-2.13v-4.17a3.53,3.53,0,0,0-.56-2.13,2.1,2.1,0,0,0-3-.19,2.48,2.48,0,0,0-.64,1.54l0,.49-3.2-.14.72-14.19h9.34V164h-6.3l-.3,5.84h.07a3.26,3.26,0,0,1,2.71-1.1,4.11,4.11,0,0,1,3.43,1.59,7.23,7.23,0,0,1,1.24,4.5v4.67A6.44,6.44,0,0,1,689.5,184a5.2,5.2,0,0,1-4.06,1.61A5.27,5.27,0,0,1,681.37,184Z"/><path d="M704.8,170.29l4.8,14.94h-3.69l-3.39-10.84L701,177.58v7.65h-3.46V160.45H701v10.33h.07l4.8-10.33h3.63Z"/><path d="M720.45,161.65a6.27,6.27,0,0,1,1.43,4.39v1.7l-3.33.18v-1.49c0-1.91-.67-2.87-2-2.87a1.84,1.84,0,0,0-1.52.64,3,3,0,0,0-.51,1.88V179.6c0,1.67.67,2.51,2,2.51a1.73,1.73,0,0,0,1.51-.69,3.88,3.88,0,0,0,.49-2.18V175h-2v-3.47h5.35v8.1a6.27,6.27,0,0,1-1.43,4.39,5.2,5.2,0,0,1-4,1.56,5.1,5.1,0,0,1-4-1.56,6.36,6.36,0,0,1-1.4-4.39V166a6.36,6.36,0,0,1,1.4-4.39,5.1,5.1,0,0,1,4-1.56A5.2,5.2,0,0,1,720.45,161.65Z"/><path d="M566.1,356.81H563V340h-4.22v-2.32a8.69,8.69,0,0,0,3.29-.86,3.61,3.61,0,0,0,1.85-1.89h2.14Z"/><path d="M586.56,356.81H583.5v-15.2h0l-2.54,12.07h-1.82l-2.54-12.07h-.06v15.2H573.6v-21.9h4l2.4,11.77h.06l2.37-11.77h4.12Z"/><path d="M597.74,338h-5.55v6.19h4.48v3.07h-4.48v6.51h5.55v3.06h-8.61v-21.9h8.61Zm-2.86-4.32h-2.25l-2.52-3.44h3.09Z"/><path d="M607.87,338h-3.26v18.77h-3.06V338h-3.27v-3.13h9.59Z"/><path d="M616,356.81l-2.43-9.26h-1.41v9.26h-3.06v-21.9h4.42a4.9,4.9,0,0,1,3.78,1.42,5.93,5.93,0,0,1,1.3,4.12V342c0,2.32-.72,3.92-2.17,4.82l2.8,10ZM612.17,338v6.5h1.24a1.94,1.94,0,0,0,1.62-.65,3.32,3.32,0,0,0,.52-2v-1.12a3.32,3.32,0,0,0-.52-2,2,2,0,0,0-1.62-.65Z"/><path d="M629.35,338H623.8v6.19h4.48v3.07H623.8v6.51h5.55v3.06h-8.61v-21.9h8.61Z"/><path d="M548,67.82a5.38,5.38,0,0,1,1.26,3.82v1l-3,.16V72a3.16,3.16,0,0,0-.43-1.85,1.56,1.56,0,0,0-1.36-.59c-1.23,0-1.84.75-1.84,2.25v4.54h.05a2.88,2.88,0,0,1,1.09-.87,3.67,3.67,0,0,1,1.57-.32,3.61,3.61,0,0,1,2.92,1.37,6.17,6.17,0,0,1,1.12,4v3a5.92,5.92,0,0,1-1.31,4A4.61,4.61,0,0,1,544.47,89a4.5,4.5,0,0,1-3.56-1.49,5.87,5.87,0,0,1-1.31-4V71.77a5.52,5.52,0,0,1,1.28-3.88,5.27,5.27,0,0,1,7.1-.07Zm-4.85,11a3.09,3.09,0,0,0-.47,1.87v2.72a3.08,3.08,0,0,0,.47,1.86,1.61,1.61,0,0,0,1.37.64,1.58,1.58,0,0,0,1.37-.64,3.08,3.08,0,0,0,.48-1.86V80.72a3.09,3.09,0,0,0-.48-1.87,1.61,1.61,0,0,0-1.37-.64A1.63,1.63,0,0,0,543.13,78.85Z"/><path d="M559.64,68A5.88,5.88,0,0,1,561,72V83.47a5.88,5.88,0,0,1-1.32,4,5.14,5.14,0,0,1-7.24,0,5.87,5.87,0,0,1-1.31-4V72a5.87,5.87,0,0,1,1.31-4,5.14,5.14,0,0,1,7.24,0Zm-5,2.22a3,3,0,0,0-.47,1.86V83.44a3.08,3.08,0,0,0,.47,1.86,1.85,1.85,0,0,0,2.8,0,3.08,3.08,0,0,0,.48-1.86V72.05a3,3,0,0,0-.48-1.86,1.85,1.85,0,0,0-2.8,0Z"/><path d="M571.11,67.87a5.61,5.61,0,0,1,1.25,3.87v2l-2.94.15V72.08c0-1.69-.58-2.53-1.74-2.53a1.53,1.53,0,0,0-1.28.56,2.61,2.61,0,0,0-.45,1.66v12a2.63,2.63,0,0,0,.45,1.66,1.56,1.56,0,0,0,1.28.56c1.16,0,1.74-.84,1.74-2.53V81l2.94.15v2.63a5.61,5.61,0,0,1-1.25,3.87A4.52,4.52,0,0,1,567.6,89a4.44,4.44,0,0,1-3.47-1.38,5.63,5.63,0,0,1-1.24-3.88v-12a5.61,5.61,0,0,1,1.24-3.88,4.44,4.44,0,0,1,3.47-1.38A4.49,4.49,0,0,1,571.11,67.87Z"/><path d="M587.2,88.69h-3.06V73.49h-.06l-2.54,12.08h-1.82l-2.54-12.08h-.06v15.2h-2.88V66.79h4l2.4,11.77h.05l2.37-11.77h4.13Z"/><path class="cls-1" d="M544.52,2.34a7.14,7.14,0,0,1,1.78,5.21V9.76A7.14,7.14,0,0,1,544.52,15a7,7,0,0,1-5.19,1.8h-1.86V28.25h-4.2V.54h6.06A7,7,0,0,1,544.52,2.34Zm-7,2.08v8.47h1.7a2.79,2.79,0,0,0,2.22-.83,3.9,3.9,0,0,0,.71-2.57V7.82a3.9,3.9,0,0,0-.71-2.57,2.79,2.79,0,0,0-2.22-.83Z"/><path class="cls-1" d="M557.86,28.25l-3.33-11.72h-1.94V28.25H548.4V.54h6.05a7,7,0,0,1,5.19,1.8,7.09,7.09,0,0,1,1.78,5.21v2q0,4.4-3,6.09l3.84,12.63ZM552.59,4.42v8.23h1.7a2.73,2.73,0,0,0,2.22-.83,3.85,3.85,0,0,0,.71-2.57V7.82a3.85,3.85,0,0,0-.71-2.57,2.77,2.77,0,0,0-2.22-.83Z"/><path class="cls-1" d="M575.61,2a7.09,7.09,0,0,1,1.81,5.13V21.64a7.08,7.08,0,0,1-1.81,5.13,7.5,7.5,0,0,1-9.93,0,7.12,7.12,0,0,1-1.8-5.13V7.15A7.13,7.13,0,0,1,565.68,2a7.5,7.5,0,0,1,9.93,0Zm-6.88,2.81a3.69,3.69,0,0,0-.66,2.36V21.6a3.67,3.67,0,0,0,.66,2.36,2.31,2.31,0,0,0,1.92.81,2.33,2.33,0,0,0,1.92-.81,3.73,3.73,0,0,0,.65-2.36V7.19a3.75,3.75,0,0,0-.65-2.36A2.33,2.33,0,0,0,570.65,4,2.31,2.31,0,0,0,568.73,4.83Z"/><path class="cls-1" d="M591.75,2.34a7.09,7.09,0,0,1,1.78,5.21V9.76A7.09,7.09,0,0,1,591.75,15a7,7,0,0,1-5.19,1.8H584.7V28.25h-4.2V.54h6.06A7,7,0,0,1,591.75,2.34Zm-7,2.08v8.47h1.7a2.78,2.78,0,0,0,2.22-.83,3.9,3.9,0,0,0,.71-2.57V7.82a3.9,3.9,0,0,0-.71-2.57,2.78,2.78,0,0,0-2.22-.83Z"/><path class="cls-1" d="M607.13,2a7.13,7.13,0,0,1,1.8,5.13V21.64a7.12,7.12,0,0,1-1.8,5.13,7.51,7.51,0,0,1-9.94,0,7.12,7.12,0,0,1-1.8-5.13V7.15A7.13,7.13,0,0,1,597.19,2a7.51,7.51,0,0,1,9.94,0Zm-6.89,2.81a3.69,3.69,0,0,0-.65,2.36V21.6a3.67,3.67,0,0,0,.65,2.36,2.31,2.31,0,0,0,1.92.81,2.33,2.33,0,0,0,1.92-.81,3.73,3.73,0,0,0,.65-2.36V7.19a3.75,3.75,0,0,0-.65-2.36A2.33,2.33,0,0,0,602.16,4,2.31,2.31,0,0,0,600.24,4.83Z"/><path class="cls-1" d="M621.48,28.25l-3.33-11.72h-1.94V28.25H612V.54h6.05a7,7,0,0,1,5.19,1.8A7.09,7.09,0,0,1,625,7.55v2q0,4.4-3,6.09l3.84,12.63ZM616.21,4.42v8.23h1.71a2.73,2.73,0,0,0,2.21-.83,3.85,3.85,0,0,0,.72-2.57V7.82a3.85,3.85,0,0,0-.72-2.57,2.76,2.76,0,0,0-2.21-.83Z"/><path class="cls-1" d="M639,4.5H634.5V28.25h-4.19V4.5h-4.48v-4H639Z"/><path class="cls-1" d="M644.88,28.25h-4.2V.54h4.2Z"/><path class="cls-1" d="M659.7,2a7.13,7.13,0,0,1,1.8,5.13V21.64a7.12,7.12,0,0,1-1.8,5.13,7.5,7.5,0,0,1-9.93,0A7.12,7.12,0,0,1,648,21.64V7.15A7.14,7.14,0,0,1,649.77,2a7.5,7.5,0,0,1,9.93,0Zm-6.89,2.81a3.75,3.75,0,0,0-.65,2.36V21.6a3.73,3.73,0,0,0,.65,2.36,2.33,2.33,0,0,0,1.92.81,2.31,2.31,0,0,0,1.92-.81,3.67,3.67,0,0,0,.66-2.36V7.19a3.69,3.69,0,0,0-.66-2.36A2.31,2.31,0,0,0,654.73,4,2.33,2.33,0,0,0,652.81,4.83Z"/><path class="cls-1" d="M678.25,28.25h-4.12l-5.5-18.37h-.08V28.25h-4V.54h4.67l5,16.51h.08V.54h4Z"/><path class="cls-1" d="M691.32,1.77a6.21,6.21,0,0,1,1.62,4.59v.71l-4,.4v-1a2.6,2.6,0,0,0-.55-1.8,2.34,2.34,0,0,0-3.17,0,2.6,2.6,0,0,0-.55,1.8v.35a4.65,4.65,0,0,0,.75,2.48,13.85,13.85,0,0,0,2.77,2.91,19.06,19.06,0,0,1,4.08,4.43,8.48,8.48,0,0,1,1.19,4.44v1.38A6.08,6.08,0,0,1,691.73,27a7.91,7.91,0,0,1-9.62,0,6.08,6.08,0,0,1-1.68-4.59V20.57l4-.39v2q0,2.61,2.37,2.61c1.59,0,2.38-.87,2.38-2.61v-.92a4.66,4.66,0,0,0-.79-2.55,15.54,15.54,0,0,0-2.85-3,18.35,18.35,0,0,1-4-4.37A8.55,8.55,0,0,1,680.43,7V6.36a6.21,6.21,0,0,1,1.62-4.59,7.4,7.4,0,0,1,9.27,0Z"/><path class="cls-1" d="M711.21,1.73a6.09,6.09,0,0,1,1.52,4.43v.2a6.89,6.89,0,0,1-.91,3.52,21,21,0,0,1-3.36,4l2.85,4.43h.08V14.28l3.64.19V19a11.05,11.05,0,0,1-.63,4.11l3.4,5.11h-5L712,27a6.54,6.54,0,0,1-4.75,1.66,7,7,0,0,1-5-1.76,6.65,6.65,0,0,1-1.84-5v-1a9.27,9.27,0,0,1,.7-3.62,13.14,13.14,0,0,1,2.35-3.59,20.51,20.51,0,0,1-2-3.92,9.91,9.91,0,0,1-.53-3.24V6.28a6.34,6.34,0,0,1,1.5-4.57,6.87,6.87,0,0,1,8.77,0Zm-5.56,15.4a8.83,8.83,0,0,0-.83,1.92,6.63,6.63,0,0,0-.24,1.8v.63a3.51,3.51,0,0,0,.77,2.48,2.8,2.8,0,0,0,2.12.81,3.24,3.24,0,0,0,2.45-1l-4.19-6.65Zm-.18-12.51A2.64,2.64,0,0,0,705,6.36v.2a5.7,5.7,0,0,0,.31,1.78,18,18,0,0,0,1.07,2.41h.08a14.67,14.67,0,0,0,1.84-2.39,3.84,3.84,0,0,0,.5-1.88v-.2a2.51,2.51,0,0,0-.5-1.66,1.95,1.95,0,0,0-2.81,0Z"/><path class="cls-1" d="M736.84,2.34a7.1,7.1,0,0,1,1.79,5.21V9.76A7.1,7.1,0,0,1,736.84,15a7,7,0,0,1-5.18,1.8H729.8V28.25h-4.2V.54h6.06A7,7,0,0,1,736.84,2.34Zm-7,2.08v8.47h1.7a2.79,2.79,0,0,0,2.22-.83,3.9,3.9,0,0,0,.71-2.57V7.82a3.9,3.9,0,0,0-.71-2.57,2.79,2.79,0,0,0-2.22-.83Z"/><path class="cls-1" d="M752.23,2A7.13,7.13,0,0,1,754,7.15V21.64a7.12,7.12,0,0,1-1.8,5.13,7.51,7.51,0,0,1-9.94,0,7.12,7.12,0,0,1-1.8-5.13V7.15A7.13,7.13,0,0,1,742.29,2a7.51,7.51,0,0,1,9.94,0Zm-6.89,2.81a3.69,3.69,0,0,0-.66,2.36V21.6a3.67,3.67,0,0,0,.66,2.36,2.31,2.31,0,0,0,1.92.81,2.33,2.33,0,0,0,1.92-.81,3.73,3.73,0,0,0,.65-2.36V7.19a3.75,3.75,0,0,0-.65-2.36A2.33,2.33,0,0,0,747.26,4,2.31,2.31,0,0,0,745.34,4.83Z"/><path class="cls-1" d="M761.31,28.25h-4.2V.54h4.2Z"/><path class="cls-1" d="M776,2.34a7.09,7.09,0,0,1,1.78,5.21V21.24A7.09,7.09,0,0,1,776,26.45a7,7,0,0,1-5.19,1.8h-6V.54h6A7,7,0,0,1,776,2.34Zm-7,2.08v20h1.66a2.73,2.73,0,0,0,2.22-.83,3.85,3.85,0,0,0,.71-2.57V7.82a3.85,3.85,0,0,0-.71-2.57,2.77,2.77,0,0,0-2.22-.83Z"/><path class="cls-1" d="M790.61,1.77a6.21,6.21,0,0,1,1.62,4.59v.71l-4,.4v-1a2.6,2.6,0,0,0-.55-1.8,2.34,2.34,0,0,0-3.17,0,2.6,2.6,0,0,0-.55,1.8v.35a4.65,4.65,0,0,0,.75,2.48,13.85,13.85,0,0,0,2.77,2.91,19.06,19.06,0,0,1,4.08,4.43,8.48,8.48,0,0,1,1.19,4.44v1.38A6,6,0,0,1,791,27a7.91,7.91,0,0,1-9.62,0,6.08,6.08,0,0,1-1.68-4.59V20.57l4-.39v2q0,2.61,2.37,2.61c1.59,0,2.38-.87,2.38-2.61v-.92a4.58,4.58,0,0,0-.79-2.55,15.54,15.54,0,0,0-2.85-3,18.35,18.35,0,0,1-4-4.37A8.55,8.55,0,0,1,779.72,7V6.36a6.21,6.21,0,0,1,1.62-4.59,7.4,7.4,0,0,1,9.27,0Z"/><g class="cls-4"><path d="M704.7,204.31l-3.2-2.81a4.17,4.17,0,0,1,1-.38c6.26-.31,11.54-3.44,16.79-6.72a7.21,7.21,0,0,1,2.83-1.05c3.78-.46,7.58-.78,11.36-1.18a6.48,6.48,0,0,0,1.37-.46H723.16a22.72,22.72,0,0,1,2.4-1.23c3.3-1.26,6.63-2.44,9.93-3.69a8.49,8.49,0,0,0,2.3-1.37l-8.08,2.15-.2-.43,15.82-9.39-3.18-.59v-.66c4.53-1.43,8.84-4,13.84-3a8.29,8.29,0,0,1,5.06,3.32c-19.38,25.39-44.88,35.46-74.54,35.17,38.6,2,66.86-16.31,86.27-51.92l.42.27a45.32,45.32,0,0,1-2.73,5.85c-3.31,5.11-6.47,10.4-10.28,15-14.61,17.8-32.93,28.11-54.81,30.89a78.4,78.4,0,0,1-21.42,0,13.79,13.79,0,0,0-1.47,0c25.18,5.17,58.37-3.7,80.73-32.7a13.77,13.77,0,0,1,2.52,9.69c-.74,6.12-4,10.75-7.74,15.33l-2.38-4.78c-.68,2.75-1.18,5.11-1.88,7.4a4.51,4.51,0,0,1-1.53,2.29c-2.73,1.82-5.56,3.47-8.7,5.39,2-3.76,3.83-7.08,5.63-10.39l-.44-.3c-.86,1.2-1.7,2.42-2.59,3.6-1.54,2-3.18,4-4.64,6.06a11,11,0,0,1-6.41,4.56c-4.05,1.06-8.07,2.24-12.1,3.37l-.19-.39,2.73-3.52-.18-.2c-1.48,1.17-2.91,2.41-4.44,3.48a4.58,4.58,0,0,1-2.39,1c-4.53.09-9.06.05-13.87.05l9.64-3.2c-6.28.89-12.33,3.7-19.07,1.79l10.41-3-.12-.52c-2.69.57-5.4,1.06-8.07,1.71a17,17,0,0,1-10-.27,95.7,95.7,0,0,1-23.28-11.48c-.43-.3-.86-.61-1.28-.93-.07-.05-.08-.19,0,0,4.77,0,9.64.12,14.5,0,3.6-.12,7.19-.65,10.79-.91a5.59,5.59,0,0,1,2.38.38c3,1.16,5.94,2.42,8.91,3.64l.23-.49-7.63-5c4.29.56,8.34-1.13,12.16,1.06Z"/></g><path d="M880.47,134.86a1.75,1.75,0,0,1-1.22-.5L868.88,124a1.73,1.73,0,1,1,2.44-2.44l10.37,10.37a1.73,1.73,0,0,1-1.22,3Z"/><path d="M891.52,127.24a1.71,1.71,0,0,1-1.69-1.38l-2.52-12.35a1.72,1.72,0,1,1,3.38-.69l2.52,12.35a1.74,1.74,0,0,1-1.35,2A2,2,0,0,1,891.52,127.24Z"/><path d="M874.75,143.05h-12.6a1.73,1.73,0,1,1,0-3.45h12.6a1.73,1.73,0,0,1,0,3.45Z"/></svg>