<svg xmlns="http://www.w3.org/2000/svg" width="1184.863" height="966.427" viewBox="0 0 1184.863 966.427">
  <g id="Drone_canon_laser" transform="translate(-308.387 -20.11)">
    <path id="Tracé_381" data-name="Tracé 381" d="M1212.04,177l2.66,7.61-2.37.91-2.88-7.53Z"/>
    <path id="Tracé_382" data-name="Tracé 382" d="M1224.09,173.32l2.67,7.62-2.38.91-2.88-7.54Z"/>
    <path id="Tracé_383" data-name="Tracé 383" d="M1247.71,137.11h-14.87a1.42,1.42,0,0,1-1.39-1.69l8.2-40.66a1.41,1.41,0,0,1,1.39-1.14h0a1.43,1.43,0,0,1,1.4,1.19l6.67,40.66a1.41,1.41,0,0,1-1.4,1.64Z" fill="#010101"/>
    <path id="Tracé_384" data-name="Tracé 384" d="M1256.54,157.78l-12.38,1.2-10.17-22.77,13.59-.18Z" fill="#010101"/>
    <path id="Tracé_385" data-name="Tracé 385" d="M1203.79,184.67c-.07.25,35.37-12.07,49.19-16.88a7.43,7.43,0,0,0,4.28-10.29,15.653,15.653,0,0,0-2.75-3.81L1199,171.41S1205.58,178.5,1203.79,184.67Z" fill="#111"/>
    <path id="Tracé_386" data-name="Tracé 386" d="M1199,171.41c1.32-.45,3.41,2.17,4.67,5.86s1.51,7,.19,7.43-3.73-2.12-5-5.8S1197.68,171.86,1199,171.41Z" fill="#191919"/>
    <path id="Tracé_387" data-name="Tracé 387" d="M1199.25,172.14c1.18-.4,3,1.94,4.16,5.22s1.34,6.21.16,6.61-3.31-1.88-4.43-5.16S1198.07,172.55,1199.25,172.14Z"/>
    <path id="Tracé_388" data-name="Tracé 388" d="M1210.67,183.31l17.85-6.16a2.71,2.71,0,0,1,3.44,1.64h0a2.7,2.7,0,0,1-1.67,3.43l-18,6.17" fill="#111"/>
    <path id="Tracé_389" data-name="Tracé 389" d="M1210.67,183.31c.51-.15,1.25.87,1.67,2.28s.47,2.65,0,2.8-1.38-.85-1.79-2.26S1210.17,183.46,1210.67,183.31Z" fill="#191919"/>
    <path id="Tracé_390" data-name="Tracé 390" d="M1210.81,183.77c.41-.13,1,.71,1.37,1.87s.39,2.18,0,2.3-1.13-.7-1.47-1.86S1210.39,183.89,1210.81,183.77Z"/>
    <path id="Tracé_391" data-name="Tracé 391" d="M1211.17,185.31c.11,0,.27.18.36.49s.1.57,0,.6-.3-.18-.39-.49S1211.06,185.34,1211.17,185.31Z" fill="#e52421"/>
    <path id="Tracé_392" data-name="Tracé 392" d="M1421.76,142.26l58.58,3.81-58.58-17.57Z" fill="#353535"/>
    <path id="Tracé_393" data-name="Tracé 393" d="M1441.44,74.08l51.81,3.36-51.81-15.52Z" fill="#353535"/>
    <path id="Tracé_394" data-name="Tracé 394" d="M1148.4,34.28l52.09,3.37L1148.4,22.13Z" fill="#353535"/>
    <path id="Tracé_395" data-name="Tracé 395" d="M1118.04,35.29H1059.2l58.84-13.05Z" fill="#353535"/>
    <path id="Tracé_396" data-name="Tracé 396" d="M1122.25,46.36c-.39-.11,0,8.56,0,8.56a28,28,0,0,0,21.2-.63V46.35S1132.17,49.35,1122.25,46.36Z" fill="#353535"/>
    <ellipse id="Ellipse_62" data-name="Ellipse 62" cx="10.6" cy="1.42" rx="10.6" ry="1.42" transform="translate(1122.25 44.85)" fill="#010101"/>
    <rect id="Rectangle_38" data-name="Rectangle 38" width="3.4" height="11.2" transform="translate(1130.99 35.07)" fill="#353535"/>
    <path id="Tracé_397" data-name="Tracé 397" d="M1116.8,22.26c-.6-.15,0,13,0,13s15.66,6.73,32.15-1v-12S1131.79,26,1116.8,22.26Z" fill="#3f3f3f"/>
    <ellipse id="Ellipse_63" data-name="Ellipse 63" cx="16.07" cy="2.13" rx="16.07" ry="2.13" transform="translate(1116.8 20.11)" fill="#353535"/>
    <path id="Tracé_398" data-name="Tracé 398" d="M1128.12,37.38,1107.95,51.6l20.17-27.27Z" fill="#353535"/>
    <path id="Tracé_399" data-name="Tracé 399" d="M1139.41,37.38l20.17,14.22-20.17-27.27Z" fill="#353535"/>
    <path id="Tracé_400" data-name="Tracé 400" d="M1371.12,34.98l51.99,3.36-51.99-15.52Z" fill="#353535"/>
    <path id="Tracé_401" data-name="Tracé 401" d="M1339.8,35.98h-57.97l57.97-13.05Z" fill="#353535"/>
    <path id="Tracé_402" data-name="Tracé 402" d="M1344.88,47.06c-.39-.12,0,8.56,0,8.56a28,28,0,0,0,21.2-.63V47S1354.8,50.05,1344.88,47.06Z" fill="#353535"/>
    <ellipse id="Ellipse_64" data-name="Ellipse 64" cx="10.6" cy="1.42" rx="10.6" ry="1.42" transform="translate(1344.88 45.54)" fill="#010101"/>
    <rect id="Rectangle_39" data-name="Rectangle 39" width="3.4" height="11.2" transform="translate(1353.61 35.76)" fill="#353535"/>
    <path id="Tracé_403" data-name="Tracé 403" d="M1339.43,23c-.6-.15,0,13,0,13s15.66,6.73,32.14-1V23S1354.5,26.86,1339.43,23Z" fill="#3f3f3f"/>
    <ellipse id="Ellipse_65" data-name="Ellipse 65" cx="16.07" cy="2.15" rx="16.07" ry="2.15" transform="translate(1339.34 20.92)" fill="#353535"/>
    <path id="Tracé_404" data-name="Tracé 404" d="M1350.74,38.08,1330.58,52.3l20.16-27.28Z" fill="#353535"/>
    <path id="Tracé_405" data-name="Tracé 405" d="M1362.04,38.08l20.17,14.22-20.17-27.28Z" fill="#353535"/>
    <path id="Tracé_406" data-name="Tracé 406" d="M1042.86,74.46l-51.8,3.36,51.8-15.52Z" fill="#353535"/>
    <path id="Tracé_407" data-name="Tracé 407" d="M1293.18,101.26l-19.81-22.63,72.18-31.17,3.13.59,1.75.16v8.17l-56.16,44.02,56.16-44.8" fill="#010101"/>
    <path id="Tracé_408" data-name="Tracé 408" d="M1195.98,112.22l-3.91-22.33-123.52-2.87v8.32Z" fill="#010101"/>
    <path id="Tracé_409" data-name="Tracé 409" d="M1191.19,99.56l20.89-21.78L1140.63,47.6h-5.6v7.93l56.16,44.03-56.16-44.81" fill="#010101"/>
    <path id="Tracé_410" data-name="Tracé 410" d="M1244.28,61.32h-7.78l-47.85,46.9A20.44,20.44,0,0,0,1209,128.6h62.84a20.43,20.43,0,0,0,20.37-20.27Z" fill="#111"/>
    <path id="Tracé_411" data-name="Tracé 411" d="M1227.87,119.91l29.22.08,36.09-49.14a20.44,20.44,0,0,0-20.38-20.38H1210a20.43,20.43,0,0,0-20.37,20.27Z" fill="#111"/>
    <path id="Tracé_412" data-name="Tracé 412" d="M1228.63,119.91l-39.05-49.17v46.9Z" fill="#353535"/>
    <path id="Tracé_413" data-name="Tracé 413" d="M1227.87,119.91l-147.3,46.94-2.49-6.85,111.38-57.86Z" fill="#010101"/>
    <path id="Tracé_414" data-name="Tracé 414" d="M1096.07,142.81l58.64,3.81-58.64-17.57Z" fill="#353535"/>
    <path id="Tracé_415" data-name="Tracé 415" d="M1259.52,21.22h2a10.66,10.66,0,0,1,10.66,10.66V50.47h-23.3V31.88a10.66,10.66,0,0,1,10.64-10.66Z" fill="#cc1417"/>
    <path id="Tracé_416" data-name="Tracé 416" d="M1260.51,21.22h-1a10.69,10.69,0,0,0-10.65,10.66V50.47h11.64Z" fill="#a91916"/>
    <path id="Tracé_417" data-name="Tracé 417" d="M1263.05,25.33s4.2.7,5.37,7" fill="none" stroke="#fff" stroke-miterlimit="10" stroke-width="1.3"/>
    <rect id="Rectangle_40" data-name="Rectangle 40" width="23.3" height="3.59" transform="translate(1248.87 47.82)" fill="#010101"/>
    <path id="Tracé_418" data-name="Tracé 418" d="M1073.51,75.46h58.84l-58.84-13.05Z" fill="#353535"/>
    <path id="Tracé_419" data-name="Tracé 419" d="M1069.3,86.54c.39-.12,0,8.56,0,8.56a28,28,0,0,1-21.2-.64V86.52S1059.38,89.53,1069.3,86.54Z" fill="#353535"/>
    <ellipse id="Ellipse_66" data-name="Ellipse 66" cx="10.6" cy="1.42" rx="10.6" ry="1.42" transform="translate(1048.1 85.02)" fill="#010101"/>
    <rect id="Rectangle_41" data-name="Rectangle 41" width="3.4" height="11.2" transform="translate(1060.56 86.45) rotate(180)" fill="#353535"/>
    <path id="Tracé_420" data-name="Tracé 420" d="M1074.75,62.43c.6-.13,0,13,0,13s-15.66,6.74-32.15-1v-12S1059.25,65.79,1074.75,62.43Z" fill="#3f3f3f"/>
    <ellipse id="Ellipse_67" data-name="Ellipse 67" cx="16.07" cy="2.13" rx="16.07" ry="2.13" transform="translate(1042.6 60.28)" fill="#353535"/>
    <path id="Tracé_421" data-name="Tracé 421" d="M1052.13,77.55l-20.16,14.23,20.16-27.28Z" fill="#353535"/>
    <path id="Tracé_422" data-name="Tracé 422" d="M1063.43,77.55l20.17,14.23L1063.43,64.5Z" fill="#353535"/>
    <path id="Tracé_423" data-name="Tracé 423" d="M1409.98,75.08h-58.02l58.02-13.05Z" fill="#353535"/>
    <path id="Tracé_424" data-name="Tracé 424" d="M1415,86.16c-.39-.12,0,8.56,0,8.56a28,28,0,0,0,21.2-.64V86.14S1424.93,89.15,1415,86.16Z" fill="#353535"/>
    <ellipse id="Ellipse_68" data-name="Ellipse 68" cx="10.6" cy="1.42" rx="10.6" ry="1.42" transform="translate(1415.01 84.64)" fill="#010101"/>
    <rect id="Rectangle_42" data-name="Rectangle 42" width="3.4" height="11.2" transform="translate(1423.75 74.86)" fill="#353535"/>
    <path id="Tracé_425" data-name="Tracé 425" d="M1409.56,62.05c-.6-.15,0,13,0,13s15.66,6.74,32.15-1V62S1424.65,65.79,1409.56,62.05Z" fill="#3f3f3f"/>
    <path id="Tracé_426" data-name="Tracé 426" d="M1441.71,61.91c0,1.19-7.2,2.15-16.08,2.15s-16.16-.73-16.16-1.91,7.29-2.39,16.16-2.39S1441.71,60.72,1441.71,61.91Z" fill="#353535"/>
    <path id="Tracé_427" data-name="Tracé 427" d="M1432.17,77.17l20.17,14.23-20.17-27.28Z" fill="#353535"/>
    <path id="Tracé_428" data-name="Tracé 428" d="M1288.33,111.84l3.91-22.33,123.52-2.87v8.32Z" fill="#010101"/>
    <path id="Tracé_429" data-name="Tracé 429" d="M1254.65,119.99l38.53-49.14v46.9Z" fill="#353535"/>
    <circle id="Ellipse_69" data-name="Ellipse 69" cx="25.04" cy="25.04" r="25.04" transform="translate(1217.28 74.52)" fill="#010101"/>
    <circle id="Ellipse_70" data-name="Ellipse 70" cx="22.09" cy="22.09" r="22.09" transform="translate(1220.23 77.47)" fill="#353535"/>
    <circle id="Ellipse_71" data-name="Ellipse 71" cx="13.77" cy="13.77" r="13.77" transform="translate(1228.62 86.63)" fill="#e62e2b"/>
    <path id="Tracé_430" data-name="Tracé 430" d="M1257.12,119.75l147.19,47.19,2.49-6.85-111.38-57.86Z" fill="#010101"/>
    <path id="Tracé_431" data-name="Tracé 431" d="M1061.35,143.95H994.73l66.62-14.78Z" fill="#353535"/>
    <path id="Tracé_432" data-name="Tracé 432" d="M1066.12,156.49c-.44-.13,0,9.69,0,9.69s11.7,5,24-.71v-9S1077.35,159.87,1066.12,156.49Z" fill="#353535"/>
    <ellipse id="Ellipse_72" data-name="Ellipse 72" cx="12" cy="1.6" rx="12" ry="1.6" transform="translate(1066.12 154.78)" fill="#010101"/>
    <rect id="Rectangle_43" data-name="Rectangle 43" width="3.85" height="12.68" transform="translate(1076.01 143.7)" fill="#353535"/>
    <path id="Tracé_433" data-name="Tracé 433" d="M1060,129.19c-.68-.17,0,14.71,0,14.71s17.73,7.62,36.4-1.09V129.17S1077.32,133.77,1060,129.19Z" fill="#3f3f3f"/>
    <path id="Tracé_434" data-name="Tracé 434" d="M1096.35,129.05c0,1.33-8.15,2.41-18.2,2.41s-18.32-.78-18.32-2.11,8.27-2.71,18.32-2.71S1096.35,127.72,1096.35,129.05Z" fill="#353535"/>
    <path id="Tracé_435" data-name="Tracé 435" d="M1072.77,146.32l-22.84,16.1,22.84-30.88Z" fill="#353535"/>
    <path id="Tracé_436" data-name="Tracé 436" d="M1085.55,146.32l22.84,16.1-22.84-30.88Z" fill="#353535"/>
    <circle id="Ellipse_73" data-name="Ellipse 73" cx="5.6" cy="5.6" r="5.6" transform="translate(1245.89 83.91)" fill="#fff"/>
    <path id="Tracé_437" data-name="Tracé 437" d="M1420.88,77.17,1400.71,91.4l20.17-27.28Z" fill="#353535"/>
    <circle id="Ellipse_74" data-name="Ellipse 74" cx="2.92" cy="2.92" r="2.92" transform="translate(1266.32 66.04)" fill="#e62e2b"/>
    <path id="Tracé_438" data-name="Tracé 438" d="M1385.82,143.4h-65.45l65.45-14.78Z" fill="#353535"/>
    <path id="Tracé_439" data-name="Tracé 439" d="M1391.76,155.94c-.45-.13,0,9.69,0,9.69s11.69,5,24-.71v-9S1403,159.32,1391.76,155.94Z" fill="#353535"/>
    <ellipse id="Ellipse_75" data-name="Ellipse 75" cx="12" cy="1.6" rx="12" ry="1.6" transform="translate(1391.76 154.23)" fill="#010101"/>
    <rect id="Rectangle_44" data-name="Rectangle 44" width="3.85" height="12.68" transform="translate(1401.65 143.15)" fill="#353535"/>
    <path id="Tracé_440" data-name="Tracé 440" d="M1385.58,128.64c-.68-.15,0,14.71,0,14.71s17.74,7.62,36.4-1.09V128.62S1403.22,132.76,1385.58,128.64Z" fill="#3f3f3f"/>
    <path id="Tracé_441" data-name="Tracé 441" d="M1422,128.48c0,1.35-8.15,2.43-18.2,2.43s-18.26-.89-18.26-2.24,8.21-2.62,18.26-2.62S1422,127.14,1422,128.48Z" fill="#353535"/>
    <path id="Tracé_442" data-name="Tracé 442" d="M1398.4,145.77l-22.83,16.1,22.83-30.88Z" fill="#353535"/>
    <path id="Tracé_443" data-name="Tracé 443" d="M1411.19,145.77l22.83,16.1-22.83-30.88Z" fill="#353535"/>
    <path id="Tracé_444" data-name="Tracé 444" d="M1242.76,156s1.09,7.48,1.44,9.31c.5,2.59-2.58-7.73-11.18-4.74l-.46-3,10.2-1.59"/>
    <ellipse id="Ellipse_76" data-name="Ellipse 76" cx="5.16" cy="1.38" rx="5.16" ry="1.38" transform="translate(1232.356 156.21) rotate(-8.83)" fill="#111"/>
    <line id="Ligne_478" data-name="Ligne 478" x1="892" y2="808" transform="translate(309.227 177.61)" fill="none" stroke="#e62e2b" stroke-width="2.5"/>
  </g>
</svg>
