<svg xmlns="http://www.w3.org/2000/svg" width="398.69" height="214.893" viewBox="0 0 398.69 214.893">
  <g id="drones_x3" transform="translate(-1228.859 -118)">
    <g id="Drone" transform="translate(1291.859 118)">
      <path id="Tracé_172" data-name="Tracé 172" d="M463.07,193.035l39.158,2.547L463.07,183.83Z" transform="translate(-175.168 -111.376)" fill="#353535"/>
      <path id="Tracé_173" data-name="Tracé 173" d="M482.75,125.382l34.632,2.253L482.75,117.26Z" transform="translate(-181.693 -89.305)" fill="#353535"/>
      <path id="Tracé_174" data-name="Tracé 174" d="M189.71,85.588l34.82,2.253L189.71,77.46Z" transform="translate(-84.536 -76.11)" fill="#353535"/>
      <path id="Tracé_175" data-name="Tracé 175" d="M139.842,86.3H100.51l39.332-8.73Z" transform="translate(-54.962 -76.146)" fill="#353535"/>
      <path id="Tracé_176" data-name="Tracé 176" d="M163.5,101.7c-.261-.08,0,5.722,0,5.722A18.717,18.717,0,0,0,177.674,107V101.69S170.134,103.7,163.5,101.7Z" transform="translate(-75.808 -84.143)" fill="#353535"/>
      <ellipse id="Ellipse_11" data-name="Ellipse 11" cx="7.086" cy="0.949" rx="7.086" ry="0.949" transform="translate(87.694 16.538)" fill="#010101"/>
      <rect id="Rectangle_8" data-name="Rectangle 8" width="2.273" height="7.487" transform="translate(93.536 10.007)" fill="#353535"/>
      <path id="Tracé_177" data-name="Tracé 177" d="M158.022,77.59c-.4-.1,0,8.69,0,8.69a28.315,28.315,0,0,0,21.491-.668V77.59S168.048,80.1,158.022,77.59Z" transform="translate(-73.97 -76.152)" fill="#3f3f3f"/>
      <ellipse id="Ellipse_12" data-name="Ellipse 12" cx="10.742" cy="1.424" rx="10.742" ry="1.424" transform="translate(84.051 0)" fill="#353535"/>
      <path id="Tracé_178" data-name="Tracé 178" d="M162.743,88.393,149.26,97.9,162.743,79.67Z" transform="translate(-71.125 -76.842)" fill="#353535"/>
      <path id="Tracé_179" data-name="Tracé 179" d="M180.72,88.393,194.2,97.9,180.72,79.67Z" transform="translate(-81.555 -76.842)" fill="#353535"/>
      <path id="Tracé_180" data-name="Tracé 180" d="M412.43,86.282l34.76,2.253L412.43,78.16Z" transform="translate(-158.378 -76.342)" fill="#353535"/>
      <path id="Tracé_181" data-name="Tracé 181" d="M361.89,86.993H323.14l38.75-8.723Z" transform="translate(-128.774 -76.378)" fill="#353535"/>
      <path id="Tracé_182" data-name="Tracé 182" d="M386.133,102.387c-.261-.074,0,5.729,0,5.729a18.717,18.717,0,0,0,14.171-.428V102.38S392.764,104.385,386.133,102.387Z" transform="translate(-149.621 -84.372)" fill="#353535"/>
      <ellipse id="Ellipse_13" data-name="Ellipse 13" cx="7.086" cy="0.949" rx="7.086" ry="0.949" transform="translate(236.512 17.005)" fill="#010101"/>
      <rect id="Rectangle_9" data-name="Rectangle 9" width="2.273" height="7.487" transform="translate(242.347 10.468)" fill="#353535"/>
      <path id="Tracé_183" data-name="Tracé 183" d="M380.651,78.29c-.4-.107,0,8.69,0,8.69a28.3,28.3,0,0,0,21.484-.668V78.29S390.725,80.9,380.651,78.29Z" transform="translate(-147.783 -76.384)" fill="#3f3f3f"/>
      <ellipse id="Ellipse_14" data-name="Ellipse 14" cx="10.742" cy="1.437" rx="10.742" ry="1.437" transform="translate(232.808 0.541)" fill="#353535"/>
      <path id="Tracé_184" data-name="Tracé 184" d="M385.373,89.083,371.89,98.6,385.373,80.36Z" transform="translate(-144.937 -77.071)" fill="#353535"/>
      <path id="Tracé_185" data-name="Tracé 185" d="M403.35,89.083,416.833,98.6,403.35,80.36Z" transform="translate(-155.368 -77.071)" fill="#353535"/>
      <path id="Tracé_186" data-name="Tracé 186" d="M67,125.762,32.37,128.014,67,117.64Z" transform="translate(-32.37 -89.431)" fill="#353535"/>
      <path id="Tracé_187" data-name="Tracé 187" d="M327.922,138.759,314.68,123.626l48.249-20.836,2.1.4,1.163.107v5.461l-37.54,29.425,37.54-29.947" transform="translate(-125.969 -84.508)" fill="#010101"/>
      <path id="Tracé_188" data-name="Tracé 188" d="M195.041,159.2l-2.614-14.927L109.86,142.35v5.568Z" transform="translate(-58.062 -97.624)" fill="#010101"/>
      <path id="Tracé_189" data-name="Tracé 189" d="M213.88,137.666l13.971-14.559L180.083,102.94H176.34v5.3l37.54,29.425-37.54-29.947" transform="translate(-80.103 -84.558)" fill="#010101"/>
      <path id="Tracé_190" data-name="Tracé 190" d="M267.159,116.65h-5.2L230,148.007a13.663,13.663,0,0,0,13.623,13.623h42.006a13.656,13.656,0,0,0,13.616-13.55Z" transform="translate(-97.894 -89.103)" fill="#111"/>
      <path id="Tracé_191" data-name="Tracé 191" d="M256.488,152.221l19.532.06,24.124-32.848a13.663,13.663,0,0,0-13.623-13.623H244.516A13.656,13.656,0,0,0,230.9,119.36Z" transform="translate(-98.192 -85.509)" fill="#111"/>
      <path id="Tracé_192" data-name="Tracé 192" d="M256.993,158.944l-26.1-32.874v31.357Z" transform="translate(-98.189 -92.226)" fill="#353535"/>
      <path id="Tracé_193" data-name="Tracé 193" d="M219.517,169.348l-98.463,31.384-1.664-4.579,74.452-38.683Z" transform="translate(-61.221 -102.637)" fill="#010101"/>
      <path id="Tracé_194" data-name="Tracé 194" d="M137.38,193.585l39.2,2.547-39.2-11.751Z" transform="translate(-67.186 -111.559)" fill="#353535"/>
      <path id="Tracé_195" data-name="Tracé 195" d="M297.3,76.56h1.337a7.126,7.126,0,0,1,7.126,7.126V96.112H290.19V83.686A7.126,7.126,0,0,1,297.3,76.56Z" transform="translate(-117.85 -75.811)" fill="#cc1417"/>
      <path id="Tracé_196" data-name="Tracé 196" d="M297.967,76.56H297.3a7.146,7.146,0,0,0-7.119,7.126V96.112h7.787Z" transform="translate(-117.846 -75.811)" fill="#a91916"/>
      <path id="Tracé_197" data-name="Tracé 197" d="M304.36,80.67s2.808.468,3.59,4.679" transform="translate(-122.548 -77.174)" fill="none" stroke="#fff" stroke-miterlimit="10" stroke-width="1.3"/>
      <rect id="Rectangle_10" data-name="Rectangle 10" width="15.575" height="2.4" transform="translate(172.334 18.529)" fill="#010101"/>
      <path id="Tracé_198" data-name="Tracé 198" d="M114.82,126.473h39.332L114.82,117.75Z" transform="translate(-59.706 -89.468)" fill="#353535"/>
      <path id="Tracé_199" data-name="Tracé 199" d="M103.581,141.867c.261-.08,0,5.722,0,5.722a18.717,18.717,0,0,1-14.171-.421V141.86S96.95,143.865,103.581,141.867Z" transform="translate(-51.281 -97.461)" fill="#353535"/>
      <ellipse id="Ellipse_15" data-name="Ellipse 15" cx="7.086" cy="0.949" rx="7.086" ry="0.949" transform="translate(38.128 43.396)" fill="#010101"/>
      <rect id="Rectangle_11" data-name="Rectangle 11" width="2.273" height="7.487" transform="translate(46.464 44.345) rotate(180)" fill="#353535"/>
      <path id="Tracé_200" data-name="Tracé 200" d="M105.4,117.77c.4-.087,0,8.69,0,8.69a28.315,28.315,0,0,1-21.491-.668V117.77S95.046,120.009,105.4,117.77Z" transform="translate(-49.458 -89.474)" fill="#3f3f3f"/>
      <ellipse id="Ellipse_16" data-name="Ellipse 16" cx="10.742" cy="1.424" rx="10.742" ry="1.424" transform="translate(34.459 26.858)" fill="#353535"/>
      <path id="Tracé_201" data-name="Tracé 201" d="M86.756,128.563,73.28,138.069,86.756,119.84Z" transform="translate(-45.934 -90.161)" fill="#353535"/>
      <path id="Tracé_202" data-name="Tracé 202" d="M104.74,128.563l13.483,9.505L104.74,119.84Z" transform="translate(-56.364 -90.161)" fill="#353535"/>
      <path id="Tracé_203" data-name="Tracé 203" d="M432.06,126.093H393.27l38.79-8.723Z" transform="translate(-152.026 -89.342)" fill="#353535"/>
      <path id="Tracé_204" data-name="Tracé 204" d="M456.263,141.487c-.261-.074,0,5.722,0,5.722a18.717,18.717,0,0,0,14.171-.421V141.48S462.893,143.485,456.263,141.487Z" transform="translate(-172.872 -97.335)" fill="#353535"/>
      <ellipse id="Ellipse_17" data-name="Ellipse 17" cx="7.086" cy="0.949" rx="7.086" ry="0.949" transform="translate(283.39 43.142)" fill="#010101"/>
      <rect id="Rectangle_12" data-name="Rectangle 12" width="2.273" height="7.487" transform="translate(289.232 36.604)" fill="#353535"/>
      <path id="Tracé_205" data-name="Tracé 205" d="M450.782,117.39c-.4-.1,0,8.69,0,8.69a28.315,28.315,0,0,0,21.491-.668V117.39S460.9,119.883,450.782,117.39Z" transform="translate(-171.034 -89.348)" fill="#3f3f3f"/>
      <path id="Tracé_206" data-name="Tracé 206" d="M472.311,116.537c0,.789-4.813,1.43-10.749,1.43s-10.8-.481-10.8-1.277,4.873-1.591,10.8-1.591S472.311,115.742,472.311,116.537Z" transform="translate(-171.086 -88.589)" fill="#353535"/>
      <path id="Tracé_207" data-name="Tracé 207" d="M473.48,128.183l13.483,9.505L473.48,119.46Z" transform="translate(-178.619 -90.035)" fill="#353535"/>
      <path id="Tracé_208" data-name="Tracé 208" d="M329.64,158.822l2.614-14.927,82.567-1.925v5.568Z" transform="translate(-130.929 -97.498)" fill="#010101"/>
      <path id="Tracé_209" data-name="Tracé 209" d="M295.96,159.038l25.755-32.848v31.35Z" transform="translate(-119.763 -92.266)" fill="#353535"/>
      <ellipse id="Ellipse_18" data-name="Ellipse 18" cx="16.738" cy="16.738" rx="16.738" ry="16.738" transform="translate(151.217 36.37)" fill="#010101"/>
      <ellipse id="Ellipse_19" data-name="Ellipse 19" cx="14.766" cy="14.766" rx="14.766" ry="14.766" transform="translate(153.189 38.342)" fill="#353535"/>
      <ellipse id="Ellipse_20" data-name="Ellipse 20" cx="9.205" cy="9.205" rx="9.205" ry="9.205" transform="translate(158.797 44.472)" fill="#e62e2b"/>
      <path id="Tracé_210" data-name="Tracé 210" d="M298.43,169.278l98.389,31.538,1.664-4.572L324.032,157.56Z" transform="translate(-120.582 -102.667)" fill="#010101"/>
      <path id="Tracé_211" data-name="Tracé 211" d="M80.572,194.39H36.04l44.532-9.88Z" transform="translate(-33.587 -111.602)" fill="#353535"/>
      <path id="Tracé_212" data-name="Tracé 212" d="M107.365,211.813c-.294-.087,0,6.484,0,6.484a21.277,21.277,0,0,0,16.043-.481V211.8S114.879,214.079,107.365,211.813Z" transform="translate(-57.191 -120.65)" fill="#353535"/>
      <ellipse id="Ellipse_21" data-name="Ellipse 21" cx="8.021" cy="1.07" rx="8.021" ry="1.07" transform="translate(50.174 90.027)" fill="#010101"/>
      <rect id="Rectangle_13" data-name="Rectangle 13" width="2.574" height="8.476" transform="translate(56.785 82.621)" fill="#353535"/>
      <path id="Tracé_213" data-name="Tracé 213" d="M101.16,184.523c-.455-.12,0,9.826,0,9.826s11.852,5.094,24.332-.729V184.51S112.771,187.585,101.16,184.523Z" transform="translate(-55.11 -111.602)" fill="#3f3f3f"/>
      <path id="Tracé_214" data-name="Tracé 214" d="M125.552,183.581c0,.889-5.448,1.611-12.166,1.611s-12.246-.521-12.246-1.41,5.528-1.811,12.246-1.811S125.552,182.692,125.552,183.581Z" transform="translate(-55.171 -110.76)" fill="#353535"/>
      <path id="Tracé_215" data-name="Tracé 215" d="M106.507,196.76,91.24,207.522l15.267-20.642Z" transform="translate(-51.888 -112.388)" fill="#353535"/>
      <path id="Tracé_216" data-name="Tracé 216" d="M126.86,196.76l15.267,10.762L126.86,186.88Z" transform="translate(-63.698 -112.388)" fill="#353535"/>
      <ellipse id="Ellipse_22" data-name="Ellipse 22" cx="3.743" cy="3.743" rx="3.743" ry="3.743" transform="translate(170.342 42.654)" fill="#fff"/>
      <path id="Tracé_217" data-name="Tracé 217" d="M455.5,128.183l-13.483,9.505L455.5,119.46Z" transform="translate(-168.189 -90.035)" fill="#353535"/>
      <ellipse id="Ellipse_23" data-name="Ellipse 23" cx="1.952" cy="1.952" rx="1.952" ry="1.952" transform="translate(183.998 30.702)" fill="#e62e2b"/>
      <path id="Tracé_218" data-name="Tracé 218" d="M405.43,193.84H361.68l43.75-9.88Z" transform="translate(-141.552 -111.42)" fill="#353535"/>
      <path id="Tracé_219" data-name="Tracé 219" d="M433,211.263c-.3-.087,0,6.484,0,6.484a21.272,21.272,0,0,0,16.043-.481V211.25S440.51,213.529,433,211.263Z" transform="translate(-165.155 -120.467)" fill="#353535"/>
      <ellipse id="Ellipse_24" data-name="Ellipse 24" cx="8.021" cy="1.07" rx="8.021" ry="1.07" transform="translate(267.849 89.66)" fill="#010101"/>
      <rect id="Rectangle_14" data-name="Rectangle 14" width="2.574" height="8.476" transform="translate(274.46 82.253)" fill="#353535"/>
      <path id="Tracé_220" data-name="Tracé 220" d="M426.79,184c-.455-.107,0,9.826,0,9.826s11.858,5.094,24.332-.729V184S438.581,186.74,426.79,184Z" transform="translate(-163.072 -111.432)" fill="#3f3f3f"/>
      <path id="Tracé_221" data-name="Tracé 221" d="M451.2,183.014c0,.9-5.441,1.624-12.166,1.624s-12.206-.6-12.206-1.5,5.488-1.751,12.206-1.751S451.2,182.119,451.2,183.014Z" transform="translate(-163.152 -110.567)" fill="#353535"/>
      <path id="Tracé_222" data-name="Tracé 222" d="M432.141,196.2,416.88,206.972l15.261-20.642Z" transform="translate(-159.854 -112.205)" fill="#353535"/>
      <path id="Tracé_223" data-name="Tracé 223" d="M452.5,196.2l15.261,10.769L452.5,186.33Z" transform="translate(-171.663 -112.205)" fill="#353535"/>
    </g>
    <g id="Drone-2" data-name="Drone" transform="translate(1228.859 255)">
      <path id="Tracé_172-2" data-name="Tracé 172" d="M463.07,187.708l16.5,1.073-16.5-4.951Z" transform="translate(-341.769 -153.303)" fill="#353535"/>
      <path id="Tracé_173-2" data-name="Tracé 173" d="M482.75,120.682l14.592.949L482.75,117.26Z" transform="translate(-355.906 -105.482)" fill="#353535"/>
      <path id="Tracé_174-2" data-name="Tracé 174" d="M189.71,80.885l14.671.949L189.71,77.46Z" transform="translate(-145.397 -76.891)" fill="#353535"/>
      <path id="Tracé_175-2" data-name="Tracé 175" d="M117.082,81.248H100.51l16.572-3.678Z" transform="translate(-81.319 -76.97)" fill="#353535"/>
      <path id="Tracé_176-2" data-name="Tracé 176" d="M163.435,101.693a17.653,17.653,0,0,0,0,2.411,7.886,7.886,0,0,0,5.971-.177V101.69A12.556,12.556,0,0,1,163.435,101.693Z" transform="translate(-126.487 -94.297)" fill="#353535"/>
      <ellipse id="Ellipse_11-2" data-name="Ellipse 11" cx="2.985" cy="0.4" rx="2.985" ry="0.4" transform="translate(36.948 6.968)" fill="#010101"/>
      <rect id="Rectangle_8-2" data-name="Rectangle 8" width="0.958" height="3.154" transform="translate(39.41 4.216)" fill="#353535"/>
      <path id="Tracé_177-2" data-name="Tracé 177" d="M157.918,77.589a26.473,26.473,0,0,0,0,3.661,11.93,11.93,0,0,0,9.055-.282v-3.38A22.961,22.961,0,0,1,157.918,77.589Z" transform="translate(-122.505 -76.984)" fill="#3f3f3f"/>
      <ellipse id="Ellipse_12-2" data-name="Ellipse 12" cx="4.526" cy="0.6" rx="4.526" ry="0.6" transform="translate(35.413 0)" fill="#353535"/>
      <path id="Tracé_178-2" data-name="Tracé 178" d="M154.941,83.345l-5.681,4,5.681-7.68Z" transform="translate(-116.339 -78.479)" fill="#353535"/>
      <path id="Tracé_179-2" data-name="Tracé 179" d="M180.72,83.345l5.681,4-5.681-7.68Z" transform="translate(-138.939 -78.479)" fill="#353535"/>
      <path id="Tracé_180-2" data-name="Tracé 180" d="M412.43,81.582l14.645.949L412.43,78.16Z" transform="translate(-305.391 -77.394)" fill="#353535"/>
      <path id="Tracé_181-2" data-name="Tracé 181" d="M339.466,81.945H323.14l16.327-3.675Z" transform="translate(-241.248 -77.473)" fill="#353535"/>
      <path id="Tracé_182-2" data-name="Tracé 182" d="M386.065,102.383a17.7,17.7,0,0,0,0,2.414,7.886,7.886,0,0,0,5.971-.18V102.38A12.557,12.557,0,0,1,386.065,102.383Z" transform="translate(-286.416 -94.793)" fill="#353535"/>
      <ellipse id="Ellipse_13-2" data-name="Ellipse 13" cx="2.985" cy="0.4" rx="2.985" ry="0.4" transform="translate(99.649 7.165)" fill="#010101"/>
      <rect id="Rectangle_9-2" data-name="Rectangle 9" width="0.958" height="3.154" transform="translate(102.108 4.41)" fill="#353535"/>
      <path id="Tracé_183-2" data-name="Tracé 183" d="M380.548,78.289a26.468,26.468,0,0,0,0,3.661,11.924,11.924,0,0,0,9.052-.282v-3.38A22,22,0,0,1,380.548,78.289Z" transform="translate(-282.434 -77.486)" fill="#3f3f3f"/>
      <ellipse id="Ellipse_14-2" data-name="Ellipse 14" cx="4.526" cy="0.606" rx="4.526" ry="0.606" transform="translate(98.089 0.228)" fill="#353535"/>
      <path id="Tracé_184-2" data-name="Tracé 184" d="M377.571,84.035l-5.681,4.008,5.681-7.683Z" transform="translate(-276.268 -78.974)" fill="#353535"/>
      <path id="Tracé_185-2" data-name="Tracé 185" d="M403.35,84.035l5.681,4.008L403.35,80.36Z" transform="translate(-298.868 -78.974)" fill="#353535"/>
      <path id="Tracé_186-2" data-name="Tracé 186" d="M46.959,121.062l-14.589.949,14.589-4.371Z" transform="translate(-32.37 -105.755)" fill="#353535"/>
      <path id="Tracé_187-2" data-name="Tracé 187" d="M320.259,117.945l-5.579-6.376,20.329-8.779.884.169.49.045v2.3l-15.817,12.4,15.817-12.617" transform="translate(-235.171 -95.087)" fill="#010101"/>
      <path id="Tracé_188-2" data-name="Tracé 188" d="M145.749,149.45l-1.1-6.289-34.788-.811V144.7Z" transform="translate(-88.036 -123.506)" fill="#010101"/>
      <path id="Tracé_189-2" data-name="Tracé 189" d="M192.157,117.571l5.886-6.134-20.126-8.5H176.34v2.233l15.817,12.4L176.34,104.954" transform="translate(-135.793 -95.195)" fill="#010101"/>
      <path id="Tracé_190-2" data-name="Tracé 190" d="M245.656,116.65h-2.191L230,129.862a5.757,5.757,0,0,0,5.74,5.74h17.7a5.754,5.754,0,0,0,5.737-5.709Z" transform="translate(-174.34 -105.044)" fill="#111"/>
      <path id="Tracé_191-2" data-name="Tracé 191" d="M241.681,125.364l8.229.025,10.164-13.84a5.757,5.757,0,0,0-5.74-5.74h-17.7a5.754,5.754,0,0,0-5.737,5.709Z" transform="translate(-174.986 -97.257)" fill="#111"/>
      <path id="Tracé_192-2" data-name="Tracé 192" d="M241.888,139.921l-11-13.851v13.212Z" transform="translate(-174.979 -111.811)" fill="#353535"/>
      <path id="Tracé_193-2" data-name="Tracé 193" d="M161.576,162.475,120.091,175.7l-.7-1.929,31.369-16.3Z" transform="translate(-94.882 -134.367)" fill="#010101"/>
      <path id="Tracé_194-2" data-name="Tracé 194" d="M137.38,188.258l16.515,1.073L137.38,184.38Z" transform="translate(-107.805 -153.698)" fill="#353535"/>
      <path id="Tracé_195-2" data-name="Tracé 195" d="M293.187,76.56h.563a3,3,0,0,1,3,3V84.8H290.19V79.562A3,3,0,0,1,293.187,76.56Z" transform="translate(-217.578 -76.245)" fill="#cc1417"/>
      <path id="Tracé_196-2" data-name="Tracé 196" d="M293.461,76.56h-.282a3.011,3.011,0,0,0-3,3V84.8h3.281Z" transform="translate(-217.571 -76.245)" fill="#a91916"/>
      <path id="Tracé_197-2" data-name="Tracé 197" d="M304.36,80.67s1.183.2,1.512,1.971" transform="translate(-227.757 -79.197)" fill="none" stroke="#fff" stroke-miterlimit="10" stroke-width="1.3"/>
      <rect id="Rectangle_10-2" data-name="Rectangle 10" width="6.562" height="1.011" transform="translate(72.609 7.807)" fill="#010101"/>
      <path id="Tracé_198-2" data-name="Tracé 198" d="M114.82,121.425h16.572L114.82,117.75Z" transform="translate(-91.599 -105.834)" fill="#353535"/>
      <path id="Tracé_199-2" data-name="Tracé 199" d="M95.381,141.863a17.658,17.658,0,0,1,0,2.411,7.886,7.886,0,0,1-5.971-.177V141.86A12.557,12.557,0,0,0,95.381,141.863Z" transform="translate(-73.345 -123.154)" fill="#353535"/>
      <ellipse id="Ellipse_15-2" data-name="Ellipse 15" cx="2.985" cy="0.4" rx="2.985" ry="0.4" transform="translate(16.065 18.284)" fill="#010101"/>
      <rect id="Rectangle_11-2" data-name="Rectangle 11" width="0.958" height="3.154" transform="translate(19.577 18.684) rotate(180)" fill="#353535"/>
      <path id="Tracé_200-2" data-name="Tracé 200" d="M92.965,117.769a26.472,26.472,0,0,1,0,3.661,11.93,11.93,0,0,1-9.055-.282v-3.38A25.413,25.413,0,0,0,92.965,117.769Z" transform="translate(-69.394 -105.848)" fill="#3f3f3f"/>
      <ellipse id="Ellipse_16-2" data-name="Ellipse 16" cx="4.526" cy="0.6" rx="4.526" ry="0.6" transform="translate(14.518 11.316)" fill="#353535"/>
      <path id="Tracé_201-2" data-name="Tracé 201" d="M78.958,123.515l-5.678,4,5.678-7.68Z" transform="translate(-61.758 -107.335)" fill="#353535"/>
      <path id="Tracé_202-2" data-name="Tracé 202" d="M104.74,123.515l5.681,4-5.681-7.68Z" transform="translate(-84.358 -107.335)" fill="#353535"/>
      <path id="Tracé_203-2" data-name="Tracé 203" d="M409.613,121.045H393.27l16.343-3.675Z" transform="translate(-291.627 -105.561)" fill="#353535"/>
      <path id="Tracé_204-2" data-name="Tracé 204" d="M456.2,141.483a17.653,17.653,0,0,0,0,2.411,7.886,7.886,0,0,0,5.971-.177V141.48A12.556,12.556,0,0,1,456.2,141.483Z" transform="translate(-336.795 -122.881)" fill="#353535"/>
      <ellipse id="Ellipse_17-2" data-name="Ellipse 17" cx="2.985" cy="0.4" rx="2.985" ry="0.4" transform="translate(119.4 18.177)" fill="#010101"/>
      <rect id="Rectangle_12-2" data-name="Rectangle 12" width="0.958" height="3.154" transform="translate(121.862 15.422)" fill="#353535"/>
      <path id="Tracé_205-2" data-name="Tracé 205" d="M450.678,117.389a26.468,26.468,0,0,0,0,3.661,11.93,11.93,0,0,0,9.055-.282v-3.38A23.027,23.027,0,0,1,450.678,117.389Z" transform="translate(-332.813 -105.574)" fill="#3f3f3f"/>
      <path id="Tracé_206-2" data-name="Tracé 206" d="M459.84,115.706c0,.332-2.028.6-4.529.6s-4.551-.2-4.551-.538,2.053-.67,4.551-.67S459.84,115.37,459.84,115.706Z" transform="translate(-332.926 -103.93)" fill="#353535"/>
      <path id="Tracé_207-2" data-name="Tracé 207" d="M473.48,123.135l5.681,4-5.681-7.68Z" transform="translate(-349.247 -107.062)" fill="#353535"/>
      <path id="Tracé_208-2" data-name="Tracé 208" d="M329.64,149.07l1.1-6.289,34.788-.811v2.346Z" transform="translate(-245.918 -123.233)" fill="#010101"/>
      <path id="Tracé_209-2" data-name="Tracé 209" d="M295.96,140.03l10.852-13.84V139.4Z" transform="translate(-221.723 -111.897)" fill="#353535"/>
      <ellipse id="Ellipse_18-2" data-name="Ellipse 18" cx="7.052" cy="7.052" rx="7.052" ry="7.052" transform="translate(63.712 15.324)" fill="#010101"/>
      <ellipse id="Ellipse_19-2" data-name="Ellipse 19" cx="6.221" cy="6.221" rx="6.221" ry="6.221" transform="translate(64.543 16.155)" fill="#353535"/>
      <ellipse id="Ellipse_20-2" data-name="Ellipse 20" cx="3.878" cy="3.878" rx="3.878" ry="3.878" transform="translate(66.906 18.737)" fill="#e62e2b"/>
      <path id="Tracé_210-2" data-name="Tracé 210" d="M298.43,162.5l41.454,13.288.7-1.926-31.369-16.3Z" transform="translate(-223.497 -134.432)" fill="#010101"/>
      <path id="Tracé_211-2" data-name="Tracé 211" d="M54.8,188.673H36.04L54.8,184.51Z" transform="translate(-35.006 -153.792)" fill="#353535"/>
      <path id="Tracé_212-2" data-name="Tracé 212" d="M107.289,211.806a20.1,20.1,0,0,0,0,2.732,8.964,8.964,0,0,0,6.759-.2V211.8A14.175,14.175,0,0,1,107.289,211.806Z" transform="translate(-86.15 -173.396)" fill="#353535"/>
      <ellipse id="Ellipse_21-2" data-name="Ellipse 21" cx="3.38" cy="0.451" rx="3.38" ry="0.451" transform="translate(21.14 37.931)" fill="#010101"/>
      <rect id="Rectangle_13-2" data-name="Rectangle 13" width="1.084" height="3.571" transform="translate(23.925 34.81)" fill="#353535"/>
      <path id="Tracé_213-2" data-name="Tracé 213" d="M101.043,184.516a29.866,29.866,0,0,0,0,4.14,13.539,13.539,0,0,0,10.252-.307V184.51A23.945,23.945,0,0,1,101.043,184.516Z" transform="translate(-81.641 -153.792)" fill="#3f3f3f"/>
      <path id="Tracé_214-2" data-name="Tracé 214" d="M111.425,182.649c0,.375-2.3.679-5.126.679s-5.16-.22-5.16-.594,2.329-.763,5.16-.763S111.425,182.274,111.425,182.649Z" transform="translate(-81.772 -151.967)" fill="#353535"/>
      <path id="Tracé_215-2" data-name="Tracé 215" d="M97.673,191.043l-6.433,4.534,6.433-8.7Z" transform="translate(-74.66 -155.494)" fill="#353535"/>
      <path id="Tracé_216-2" data-name="Tracé 216" d="M126.86,191.043l6.433,4.534-6.433-8.7Z" transform="translate(-100.248 -155.494)" fill="#353535"/>
      <ellipse id="Ellipse_22-2" data-name="Ellipse 22" cx="1.577" cy="1.577" rx="1.577" ry="1.577" transform="translate(71.77 17.971)" fill="#fff"/>
      <path id="Tracé_217-2" data-name="Tracé 217" d="M447.7,123.135l-5.681,4,5.681-7.68Z" transform="translate(-326.647 -107.062)" fill="#353535"/>
      <ellipse id="Ellipse_23-2" data-name="Ellipse 23" cx="0.822" cy="0.822" rx="0.822" ry="0.822" transform="translate(77.524 12.936)" fill="#e62e2b"/>
      <path id="Tracé_218-2" data-name="Tracé 218" d="M380.113,188.123H361.68l18.433-4.163Z" transform="translate(-268.934 -153.397)" fill="#353535"/>
      <path id="Tracé_219-2" data-name="Tracé 219" d="M432.926,211.256a19.65,19.65,0,0,0,0,2.732,8.963,8.963,0,0,0,6.759-.2V211.25A14.178,14.178,0,0,1,432.926,211.256Z" transform="translate(-320.074 -173.001)" fill="#353535"/>
      <ellipse id="Ellipse_24-2" data-name="Ellipse 24" cx="3.38" cy="0.451" rx="3.38" ry="0.451" transform="translate(112.852 37.776)" fill="#010101"/>
      <rect id="Rectangle_14-2" data-name="Rectangle 14" width="1.084" height="3.571" transform="translate(115.638 34.656)" fill="#353535"/>
      <path id="Tracé_220-2" data-name="Tracé 220" d="M426.673,184a29.864,29.864,0,0,0,0,4.14,13.54,13.54,0,0,0,10.252-.307V184A26.612,26.612,0,0,1,426.673,184Z" transform="translate(-315.561 -153.424)" fill="#3f3f3f"/>
      <path id="Tracé_221-2" data-name="Tracé 221" d="M437.1,182.074c0,.377-2.293.684-5.126.684s-5.143-.253-5.143-.631,2.312-.738,5.143-.738S437.1,181.7,437.1,182.074Z" transform="translate(-315.735 -151.55)" fill="#353535"/>
      <path id="Tracé_222-2" data-name="Tracé 222" d="M423.31,190.49l-6.43,4.537,6.43-8.7Z" transform="translate(-308.588 -155.099)" fill="#353535"/>
      <path id="Tracé_223-2" data-name="Tracé 223" d="M452.5,190.49l6.43,4.537-6.43-8.7Z" transform="translate(-334.176 -155.099)" fill="#353535"/>
    </g>
    <g id="Drone-3" data-name="Drone" transform="translate(1454.119 283)">
      <path id="Tracé_172-3" data-name="Tracé 172" d="M463.07,188.469l19.734,1.283L463.07,183.83Z" transform="translate(-317.977 -147.316)" fill="#353535"/>
      <path id="Tracé_173-3" data-name="Tracé 173" d="M482.75,121.353l17.454,1.135L482.75,117.26Z" transform="translate(-331.027 -103.172)" fill="#353535"/>
      <path id="Tracé_174-3" data-name="Tracé 174" d="M189.71,81.556l17.548,1.135L189.71,77.46Z" transform="translate(-136.706 -76.779)" fill="#353535"/>
      <path id="Tracé_175-3" data-name="Tracé 175" d="M120.332,81.97H100.51l19.822-4.4Z" transform="translate(-77.555 -76.852)" fill="#353535"/>
      <path id="Tracé_176-3" data-name="Tracé 176" d="M163.445,101.693a21.116,21.116,0,0,0,0,2.884,9.432,9.432,0,0,0,7.142-.212V101.69A15.019,15.019,0,0,1,163.445,101.693Z" transform="translate(-119.25 -92.847)" fill="#353535"/>
      <ellipse id="Ellipse_11-3" data-name="Ellipse 11" cx="3.571" cy="0.478" rx="3.571" ry="0.478" transform="translate(44.195 8.334)" fill="#010101"/>
      <rect id="Rectangle_8-3" data-name="Rectangle 8" width="1.145" height="3.773" transform="translate(47.139 5.043)" fill="#353535"/>
      <path id="Tracé_177-3" data-name="Tracé 177" d="M157.933,77.589c-.2-.051,0,4.379,0,4.379a14.27,14.27,0,0,0,10.831-.337V77.589A27.464,27.464,0,0,1,157.933,77.589Z" transform="translate(-115.574 -76.865)" fill="#3f3f3f"/>
      <ellipse id="Ellipse_12-3" data-name="Ellipse 12" cx="5.414" cy="0.718" rx="5.414" ry="0.718" transform="translate(42.359 0)" fill="#353535"/>
      <path id="Tracé_178-3" data-name="Tracé 178" d="M156.055,84.066l-6.795,4.79,6.795-9.187Z" transform="translate(-109.882 -78.245)" fill="#353535"/>
      <path id="Tracé_179-3" data-name="Tracé 179" d="M180.72,84.066l6.795,4.79L180.72,79.67Z" transform="translate(-130.744 -78.245)" fill="#353535"/>
      <path id="Tracé_180-3" data-name="Tracé 180" d="M412.43,82.253l17.518,1.135L412.43,78.16Z" transform="translate(-284.397 -77.244)" fill="#353535"/>
      <path id="Tracé_181-3" data-name="Tracé 181" d="M342.669,82.666H323.14l19.529-4.4Z" transform="translate(-225.186 -77.317)" fill="#353535"/>
      <path id="Tracé_182-3" data-name="Tracé 182" d="M386.075,102.383a21.17,21.17,0,0,0,0,2.887,9.433,9.433,0,0,0,7.142-.216V102.38A15.019,15.019,0,0,1,386.075,102.383Z" transform="translate(-266.881 -93.305)" fill="#353535"/>
      <ellipse id="Ellipse_13-3" data-name="Ellipse 13" cx="3.571" cy="0.478" rx="3.571" ry="0.478" transform="translate(119.194 8.57)" fill="#010101"/>
      <rect id="Rectangle_9-3" data-name="Rectangle 9" width="1.145" height="3.773" transform="translate(122.135 5.275)" fill="#353535"/>
      <path id="Tracé_183-3" data-name="Tracé 183" d="M380.563,78.289c-.2-.054,0,4.379,0,4.379a14.262,14.262,0,0,0,10.827-.337V78.289A26.314,26.314,0,0,1,380.563,78.289Z" transform="translate(-263.205 -77.329)" fill="#3f3f3f"/>
      <ellipse id="Ellipse_14-3" data-name="Ellipse 14" cx="5.414" cy="0.724" rx="5.414" ry="0.724" transform="translate(117.327 0.273)" fill="#353535"/>
      <path id="Tracé_184-3" data-name="Tracé 184" d="M378.685,84.756,371.89,89.55l6.795-9.19Z" transform="translate(-257.514 -78.703)" fill="#353535"/>
      <path id="Tracé_185-3" data-name="Tracé 185" d="M403.35,84.756l6.795,4.794-6.795-9.19Z" transform="translate(-278.375 -78.703)" fill="#353535"/>
      <path id="Tracé_186-3" data-name="Tracé 186" d="M49.82,121.733l-17.45,1.135,17.45-5.228Z" transform="translate(-32.37 -103.424)" fill="#353535"/>
      <path id="Tracé_187-3" data-name="Tracé 187" d="M321.353,120.917l-6.674-7.627L339,102.79l1.058.2.586.054V105.8l-18.919,14.829,18.919-15.092" transform="translate(-219.576 -93.576)" fill="#010101"/>
      <path id="Tracé_188-3" data-name="Tracé 188" d="M152.788,150.843l-1.317-7.522-41.611-.97v2.806Z" transform="translate(-83.755 -119.81)" fill="#010101"/>
      <path id="Tracé_189-3" data-name="Tracé 189" d="M195.259,120.441,202.3,113.1,178.227,102.94H176.34v2.671l18.919,14.829L176.34,105.349" transform="translate(-127.84 -93.676)" fill="#010101"/>
      <path id="Tracé_190-3" data-name="Tracé 190" d="M248.727,116.65h-2.621L230,132.453a6.886,6.886,0,0,0,6.866,6.866h21.169a6.882,6.882,0,0,0,6.862-6.828Z" transform="translate(-163.423 -102.767)" fill="#111"/>
      <path id="Tracé_191-3" data-name="Tracé 191" d="M243.8,129.2l9.844.03L265.8,112.676a6.886,6.886,0,0,0-6.866-6.866H237.762a6.882,6.882,0,0,0-6.862,6.828Z" transform="translate(-164.02 -95.579)" fill="#111"/>
      <path id="Tracé_192-3" data-name="Tracé 192" d="M244.045,142.638,230.89,126.07v15.8Z" transform="translate(-164.013 -109.014)" fill="#353535"/>
      <path id="Tracé_193-3" data-name="Tracé 193" d="M169.851,163.456l-49.622,15.816-.839-2.308,37.521-19.5Z" transform="translate(-90.075 -129.836)" fill="#010101"/>
      <path id="Tracé_194-3" data-name="Tracé 194" d="M137.38,189.019l19.754,1.283L137.38,184.38Z" transform="translate(-102.005 -147.681)" fill="#353535"/>
      <path id="Tracé_195-3" data-name="Tracé 195" d="M293.774,76.56h.674a3.591,3.591,0,0,1,3.591,3.591v6.263H290.19V80.151A3.591,3.591,0,0,1,293.774,76.56Z" transform="translate(-203.336 -76.183)" fill="#cc1417"/>
      <path id="Tracé_196-3" data-name="Tracé 196" d="M294.1,76.56h-.337a3.6,3.6,0,0,0-3.588,3.591v6.263H294.1Z" transform="translate(-203.33 -76.183)" fill="#a91916"/>
      <path id="Tracé_197-3" data-name="Tracé 197" d="M304.36,80.67s1.415.236,1.809,2.358" transform="translate(-212.733 -78.908)" fill="none" stroke="#fff" stroke-miterlimit="10" stroke-width="1.3"/>
      <rect id="Rectangle_10-3" data-name="Rectangle 10" width="7.849" height="1.209" transform="translate(86.85 9.338)" fill="#010101"/>
      <path id="Tracé_198-3" data-name="Tracé 198" d="M114.82,122.146h19.822l-19.822-4.4Z" transform="translate(-87.045 -103.497)" fill="#353535"/>
      <path id="Tracé_199-3" data-name="Tracé 199" d="M96.552,141.863a21.121,21.121,0,0,1,0,2.884,9.433,9.433,0,0,1-7.142-.212V141.86A15.019,15.019,0,0,0,96.552,141.863Z" transform="translate(-70.195 -119.485)" fill="#353535"/>
      <ellipse id="Ellipse_15-3" data-name="Ellipse 15" cx="3.571" cy="0.478" rx="3.571" ry="0.478" transform="translate(19.215 21.87)" fill="#010101"/>
      <rect id="Rectangle_11-3" data-name="Rectangle 11" width="1.145" height="3.773" transform="translate(23.416 22.348) rotate(180)" fill="#353535"/>
      <path id="Tracé_200-3" data-name="Tracé 200" d="M94.741,117.769c.2-.044,0,4.379,0,4.379a14.27,14.27,0,0,1-10.831-.337v-4.043A30.4,30.4,0,0,0,94.741,117.769Z" transform="translate(-66.547 -103.509)" fill="#3f3f3f"/>
      <ellipse id="Ellipse_16-3" data-name="Ellipse 16" cx="5.414" cy="0.718" rx="5.414" ry="0.718" transform="translate(17.366 13.536)" fill="#353535"/>
      <path id="Tracé_201-3" data-name="Tracé 201" d="M80.071,124.236l-6.791,4.79,6.791-9.187Z" transform="translate(-59.498 -104.883)" fill="#353535"/>
      <path id="Tracé_202-3" data-name="Tracé 202" d="M104.74,124.236l6.795,4.79-6.795-9.187Z" transform="translate(-80.36 -104.883)" fill="#353535"/>
      <path id="Tracé_203-3" data-name="Tracé 203" d="M412.819,121.766H393.27l19.549-4.4Z" transform="translate(-271.691 -103.245)" fill="#353535"/>
      <path id="Tracé_204-3" data-name="Tracé 204" d="M456.205,141.483a21.116,21.116,0,0,0,0,2.884,9.433,9.433,0,0,0,7.142-.212V141.48A15.019,15.019,0,0,1,456.205,141.483Z" transform="translate(-313.386 -119.233)" fill="#353535"/>
      <ellipse id="Ellipse_17-3" data-name="Ellipse 17" cx="3.571" cy="0.478" rx="3.571" ry="0.478" transform="translate(142.819 21.742)" fill="#010101"/>
      <rect id="Rectangle_12-3" data-name="Rectangle 12" width="1.145" height="3.773" transform="translate(145.763 18.447)" fill="#353535"/>
      <path id="Tracé_205-3" data-name="Tracé 205" d="M450.693,117.389c-.2-.051,0,4.379,0,4.379a14.27,14.27,0,0,0,10.831-.337v-4.043A27.543,27.543,0,0,1,450.693,117.389Z" transform="translate(-309.71 -103.257)" fill="#3f3f3f"/>
      <path id="Tracé_206-3" data-name="Tracé 206" d="M461.621,115.824c0,.4-2.425.721-5.417.721s-5.444-.243-5.444-.643,2.456-.8,5.444-.8S461.621,115.423,461.621,115.824Z" transform="translate(-309.814 -101.739)" fill="#353535"/>
      <path id="Tracé_207-3" data-name="Tracé 207" d="M473.48,123.856l6.795,4.79-6.795-9.187Z" transform="translate(-324.88 -104.631)" fill="#353535"/>
      <path id="Tracé_208-3" data-name="Tracé 208" d="M329.64,150.463l1.317-7.522,41.611-.97v2.806Z" transform="translate(-229.497 -119.558)" fill="#010101"/>
      <path id="Tracé_209-3" data-name="Tracé 209" d="M295.96,142.744l12.98-16.554v15.8Z" transform="translate(-207.163 -109.093)" fill="#353535"/>
      <ellipse id="Ellipse_18-3" data-name="Ellipse 18" cx="8.435" cy="8.435" rx="8.435" ry="8.435" transform="translate(76.208 18.329)" fill="#010101"/>
      <ellipse id="Ellipse_19-3" data-name="Ellipse 19" cx="7.442" cy="7.442" rx="7.442" ry="7.442" transform="translate(77.202 19.323)" fill="#353535"/>
      <ellipse id="Ellipse_20-3" data-name="Ellipse 20" cx="4.639" cy="4.639" rx="4.639" ry="4.639" transform="translate(80.028 22.412)" fill="#e62e2b"/>
      <path id="Tracé_210-3" data-name="Tracé 210" d="M298.43,163.465l49.585,15.894.839-2.3-37.521-19.5Z" transform="translate(-208.801 -129.896)" fill="#010101"/>
      <path id="Tracé_211-3" data-name="Tracé 211" d="M58.483,189.489H36.04l22.443-4.979Z" transform="translate(-34.804 -147.767)" fill="#353535"/>
      <path id="Tracé_212-3" data-name="Tracé 212" d="M107.3,211.807a24.04,24.04,0,0,0,0,3.268,10.723,10.723,0,0,0,8.085-.243V211.8A16.955,16.955,0,0,1,107.3,211.807Z" transform="translate(-82.014 -165.863)" fill="#353535"/>
      <ellipse id="Ellipse_21-3" data-name="Ellipse 21" cx="4.043" cy="0.539" rx="4.043" ry="0.539" transform="translate(25.286 45.371)" fill="#010101"/>
      <rect id="Rectangle_13-3" data-name="Rectangle 13" width="1.297" height="4.272" transform="translate(28.618 41.638)" fill="#353535"/>
      <path id="Tracé_213-3" data-name="Tracé 213" d="M101.06,184.517c-.229-.061,0,4.952,0,4.952a16.194,16.194,0,0,0,12.262-.367V184.51A28.641,28.641,0,0,1,101.06,184.517Z" transform="translate(-77.852 -147.767)" fill="#3f3f3f"/>
      <path id="Tracé_214-3" data-name="Tracé 214" d="M113.443,182.782c0,.448-2.745.812-6.131.812s-6.172-.263-6.172-.711,2.786-.913,6.172-.913S113.443,182.334,113.443,182.782Z" transform="translate(-77.973 -146.083)" fill="#353535"/>
      <path id="Tracé_215-3" data-name="Tracé 215" d="M98.934,191.859l-7.694,5.424,7.694-10.4Z" transform="translate(-71.408 -149.338)" fill="#353535"/>
      <path id="Tracé_216-3" data-name="Tracé 216" d="M126.86,191.859l7.694,5.424-7.694-10.4Z" transform="translate(-95.029 -149.338)" fill="#353535"/>
      <ellipse id="Ellipse_22-3" data-name="Ellipse 22" cx="1.887" cy="1.887" rx="1.887" ry="1.887" transform="translate(85.846 21.496)" fill="#fff"/>
      <path id="Tracé_217-3" data-name="Tracé 217" d="M448.815,123.856l-6.795,4.79,6.795-9.187Z" transform="translate(-304.018 -104.631)" fill="#353535"/>
      <ellipse id="Ellipse_23-3" data-name="Ellipse 23" cx="0.984" cy="0.984" rx="0.984" ry="0.984" transform="translate(92.729 15.473)" fill="#e62e2b"/>
      <path id="Tracé_218-3" data-name="Tracé 218" d="M383.729,188.939H361.68l22.049-4.979Z" transform="translate(-250.743 -147.402)" fill="#353535"/>
      <path id="Tracé_219-3" data-name="Tracé 219" d="M432.937,211.257a23.5,23.5,0,0,0,0,3.268,10.721,10.721,0,0,0,8.085-.243V211.25A16.959,16.959,0,0,1,432.937,211.257Z" transform="translate(-297.951 -165.499)" fill="#353535"/>
      <ellipse id="Ellipse_24-3" data-name="Ellipse 24" cx="4.043" cy="0.539" rx="4.043" ry="0.539" transform="translate(134.986 45.185)" fill="#010101"/>
      <rect id="Rectangle_14-3" data-name="Rectangle 14" width="1.297" height="4.272" transform="translate(138.318 41.453)" fill="#353535"/>
      <path id="Tracé_220-3" data-name="Tracé 220" d="M426.69,184c-.229-.054,0,4.952,0,4.952a16.2,16.2,0,0,0,12.262-.367V184A31.831,31.831,0,0,1,426.69,184Z" transform="translate(-293.785 -147.428)" fill="#3f3f3f"/>
      <path id="Tracé_221-3" data-name="Tracé 221" d="M439.112,182.209c0,.451-2.742.819-6.131.819s-6.151-.3-6.151-.755,2.766-.883,6.151-.883S439.112,181.757,439.112,182.209Z" transform="translate(-293.946 -145.698)" fill="#353535"/>
      <path id="Tracé_222-3" data-name="Tracé 222" d="M424.571,191.306l-7.691,5.427,7.691-10.4Z" transform="translate(-287.348 -148.974)" fill="#353535"/>
      <path id="Tracé_223-3" data-name="Tracé 223" d="M452.5,191.306l7.691,5.427-7.691-10.4Z" transform="translate(-310.968 -148.974)" fill="#353535"/>
    </g>
  </g>
</svg>
