<svg id="Caméra" xmlns="http://www.w3.org/2000/svg" width="153.332" height="147.424" viewBox="0 0 153.332 147.424">
  <ellipse id="Ellipse_10" data-name="Ellipse 10" cx="16.144" cy="16.144" rx="16.144" ry="16.144" transform="translate(56.305 54.129)" fill="#010101"/>
  <rect id="Rectangle_7" data-name="Rectangle 7" width="40.553" height="13.567" transform="translate(3.537 114.195)" fill="#010101"/>
  <path id="Tracé_159" data-name="Tracé 159" d="M174.533,171.618c1.671,1.089,3.159,2.157,4.734,3.057,2.083,1.177,4.383.453,5.891-1.759,5.16-7.555,10.246-15.157,15.481-22.657,2.908-4.187,3.3-6.087-1.643-9-.92-.541-1.772-1.211-2.766-1.894Z" transform="translate(-52.197 -72.755)"/>
  <path id="Tracé_160" data-name="Tracé 160" d="M295.42,200.909l10,4.613,24.842-43.665-10.443-7.027Z" transform="translate(-261.434 -77.759)" fill="#010101"/>
  <path id="Tracé_161" data-name="Tracé 161" d="M272.348,106.078c1.657-.994,1.853-2.753.325-3.774-3.869-2.57-7.6-5.343-11.586-7.731-2.523-1.515-4.734-3.517-7.244-5.066-4.734-2.929-9.259-6.155-13.838-9.306-2.705-1.867-5.654-3.382-8.19-5.539-2.354-1.961-5.228-3.165-7.561-5.12-2.151-1.8-4.734-2.956-6.919-4.619-2.482-1.867-5.052-3.564-7.656-5.242-2.9-1.867-5.587-4.058-8.556-5.823-2.5-1.5-4.734-3.422-7.217-4.991-3.679-2.32-7.183-4.9-10.774-7.352-1.657-1.129-3.03-.744-3.93,1.042.413.832-.129,1.556-.271,2.327a5.411,5.411,0,0,0-.135.879,38.281,38.281,0,0,1-4.281,11.1c-1.048,1.941-2.374,3.713-3.287,5.742a10.464,10.464,0,0,0-.616,1.907c-.724,5.411,1.353,9.631,5.742,12.648,10.362,7.176,20.831,14.2,31.247,21.291,8.42,5.735,16.909,11.39,25.241,17.213a14.088,14.088,0,0,0,7.528,2.827,11.8,11.8,0,0,0,8-2.631,55.569,55.569,0,0,1,9.144-6.27,31.4,31.4,0,0,1,13.818-3.382A1.664,1.664,0,0,0,272.348,106.078Z" transform="translate(-120.382 -40.877)" fill="#3f3f3f"/>
  <path id="Tracé_162" data-name="Tracé 162" d="M339.115,144.372l2.293,2.976a1.352,1.352,0,0,0,.94-.676c4.18-5.411,7.683-11.153,8.935-18.018a30.069,30.069,0,0,0-.825-15.076c-1.495-4.5-3.016-9-4.261-13.574a38.839,38.839,0,0,1,1.968-26.918,18.451,18.451,0,0,1,4.288-5.817,8.691,8.691,0,0,1,10-1.758,22.02,22.02,0,0,0,3.788,1.258,2.827,2.827,0,0,0,2-2.841c-1.934-.717-3.848-1.515-5.81-2.151-4.971-1.616-9.212-.25-12.891,3.294-4.132,3.99-6.263,8.982-7.528,14.487a45.936,45.936,0,0,0,1.65,25.654c.933,2.753,1.988,5.465,2.834,8.251,3.49,11.5.3,21.481-6.892,30.557A1.894,1.894,0,0,1,339.115,144.372Z" transform="translate(-328.963 -47.424)" fill="#e62e2b"/>
  <path id="Tracé_163" data-name="Tracé 163" d="M173.752,171.777c1.4.927,2.786,1.873,4.207,2.773a4.477,4.477,0,0,0,6.378-1.251q8.468-12.357,16.909-24.754c1.664-2.462,1.265-4.417-1.123-6.087q-2.2-1.508-4.389-3.037a.665.665,0,0,0-.791.216c-1.562,2.09-3.016,4.268-4.457,6.446-5.289,7.981-10.727,15.86-16.009,23.848C174.09,170.486,173.481,170.979,173.752,171.777Z" transform="translate(-51.098 -72.753)" fill="#010101"/>
  <path id="Tracé_164" data-name="Tracé 164" d="M267.843,118.9l.541-.318c1.921-1.069,4.092-.785,6.134-1.157.419-.074.9.115,1.231-.318-8.847-.609-16.232,2.868-22.745,8.4-5.3,4.477-10.6,4.876-16.367.96q-28.406-19.282-56.752-38.612c-4.274-2.922-6.087-7.108-5.587-12.289.108-.311.264-.676-.311-.615-3.084,6.04-1.353,12.343,4.437,16.3,9.6,6.52,19.222,13,28.812,19.519,9.1,6.182,18.261,12.33,27.27,18.62,5.891,4.1,11.883,2.793,16.719-1.529,2.029-1.806,3.963-3.686,6.486-4.8.507.142.812-.243,1.184-.46A33.817,33.817,0,0,1,267.843,118.9Z" transform="translate(-123.776 -51.902)" fill="#010101"/>
  <path id="Tracé_165" data-name="Tracé 165" d="M185.893,80.959c2.171-3.246,4.491-6.385,6.547-9.712,2.611-4,5.357-7.906,8.015-11.877.372-.555.71-1.2,1.434-1.434q3.476-5.052,6.966-10.145a6.493,6.493,0,0,1,2.509-2.442.555.555,0,0,1,.257.3c.129.507-.291,1.035.054,1.535a5.23,5.23,0,0,1-.068.73c-1.4,5.938-4.464,11.1-7.6,16.232a3.24,3.24,0,0,0-.71,1.468,15.064,15.064,0,0,0-1.312,4.991c-.088,4.843,2.171,8.373,6.121,11,9.313,6.182,18.484,12.573,27.73,18.809q4.619,3.1,9.212,6.249c6.527,4.464,13.047,8.955,19.614,13.331a10.889,10.889,0,0,0,10.774.987,18.72,18.72,0,0,0,5.282-3.517,37.144,37.144,0,0,1,4.646-3.632c.426-.271.832-.8,1.461-.44v.054a30.244,30.244,0,0,1,9.469-4.4.507.507,0,0,1,.615.271q-5.837,8.671-11.653,17.355-4.9,7.325-9.76,14.677c-.419.541-.866,1.055-1.251,1.61-1.556,2.239-6.635,3.524-8.549,1.657h0a17.851,17.851,0,0,1-2.029-.839q-12.539-8.562-25.119-17.057c-.609-.406-1.1-1.021-1.9-1.075-7.873-5.208-15.59-10.632-23.422-15.9-1.8-1.2-3.436-2.705-5.546-3.382-.487-.413-.981-.818-1.515-1.19-5.871-4.105-11.87-8.021-17.754-12.113a10.1,10.1,0,0,1-2.962-3.071C183.661,86.918,183.925,83.915,185.893,80.959Z" transform="translate(-152.895 -42.325)" fill="#141414"/>
  <path id="Tracé_166" data-name="Tracé 166" d="M330.343,62.971a10.266,10.266,0,0,1-1.765,2.644,23.648,23.648,0,0,0-3.646,4.964.839.839,0,0,0,.142,1.2c1.894,1.272,3.585,2.895,5.837,3.6l9.158-13.3c-1.819-1.258-3.645-2.5-5.445-3.781-.534-.379-.791-.257-1.143.264C332.453,60.056,331.391,61.5,330.343,62.971Z" transform="translate(-291.074 -46.446)" fill="#606060"/>
  <path id="Tracé_167" data-name="Tracé 167" d="M324.95,103.5a2.989,2.989,0,0,0,2.834,3,3.03,3.03,0,0,0,3-2.861,3.1,3.1,0,0,0-2.942-3.1A3.023,3.023,0,0,0,324.95,103.5Z" transform="translate(-281.935 -60.188)" fill="#e62e2b"/>
  <path id="Tracé_168" data-name="Tracé 168" d="M306.543,163.309a3.057,3.057,0,0,0-2.895,3.111,3.186,3.186,0,0,0,3.077,2.814,3.07,3.07,0,0,0,2.847-3.165A2.949,2.949,0,0,0,306.543,163.309Z" transform="translate(-246.315 -80.503)" fill="#3f3f3f"/>
  <path id="Tracé_169" data-name="Tracé 169" d="M336.473,215.369a3.064,3.064,0,0,0-2.895,3.111,3.186,3.186,0,0,0,3.077,2.814,3.077,3.077,0,0,0,2.854-3.165A2.962,2.962,0,0,0,336.473,215.369Z" transform="translate(-296.495 -97.353)" fill="#141414"/>
  <path id="Tracé_170" data-name="Tracé 170" d="M333.981,58.08,325.02,71.289,331,75.347c3-4.41,5.932-8.725,8.968-13.2Z" transform="translate(-291.162 -46.445)"/>
  <path id="Tracé_171" data-name="Tracé 171" d="M375.54,180.65h4.335a10.328,10.328,0,0,1,10.3,10.3v32.288a10.334,10.334,0,0,1-10.3,10.3H375.54Z" transform="translate(-375.54 -86.116)" fill="#141414"/>
</svg>
