<svg xmlns="http://www.w3.org/2000/svg" xmlns:xlink="http://www.w3.org/1999/xlink" width="885.118" height="706.702" viewBox="0 0 885.118 706.702">
  <defs>
    <filter id="Tracé_288" x="0" y="86.596" width="730.026" height="620.106" filterUnits="userSpaceOnUse">
      <feOffset dx="3" dy="3" input="SourceAlpha"/>
      <feGaussianBlur stdDeviation="5" result="blur"/>
      <feFlood flood-opacity="0.102"/>
      <feComposite operator="in" in2="blur"/>
      <feComposite in="SourceGraphic"/>
    </filter>
    <filter id="Ellipse_45" x="749.828" y="64.359" width="68.38" height="68.38" filterUnits="userSpaceOnUse">
      <feOffset dx="3" dy="3" input="SourceAlpha"/>
      <feGaussianBlur stdDeviation="5" result="blur-2"/>
      <feFlood flood-opacity="0.102"/>
      <feComposite operator="in" in2="blur-2"/>
      <feComposite in="SourceGraphic"/>
    </filter>
    <filter id="Rectangle_29" x="802.727" y="135.737" width="78.203" height="46.118" filterUnits="userSpaceOnUse">
      <feOffset dx="3" dy="3" input="SourceAlpha"/>
      <feGaussianBlur stdDeviation="5" result="blur-3"/>
      <feFlood flood-opacity="0.102"/>
      <feComposite operator="in" in2="blur-3"/>
      <feComposite in="SourceGraphic"/>
    </filter>
    <filter id="Tracé_289" x="676.156" y="79.183" width="63.566" height="72.605" filterUnits="userSpaceOnUse">
      <feOffset dx="3" dy="3" input="SourceAlpha"/>
      <feGaussianBlur stdDeviation="5" result="blur-4"/>
      <feFlood flood-opacity="0.102"/>
      <feComposite operator="in" in2="blur-4"/>
      <feComposite in="SourceGraphic"/>
    </filter>
    <filter id="Tracé_290" x="773.333" y="91.621" width="71.4" height="90.235" filterUnits="userSpaceOnUse">
      <feOffset dx="3" dy="3" input="SourceAlpha"/>
      <feGaussianBlur stdDeviation="5" result="blur-5"/>
      <feFlood flood-opacity="0.102"/>
      <feComposite operator="in" in2="blur-5"/>
      <feComposite in="SourceGraphic"/>
    </filter>
    <filter id="Tracé_291" x="672.863" y="0" width="152.626" height="122.297" filterUnits="userSpaceOnUse">
      <feOffset dx="3" dy="3" input="SourceAlpha"/>
      <feGaussianBlur stdDeviation="5" result="blur-6"/>
      <feFlood flood-opacity="0.102"/>
      <feComposite operator="in" in2="blur-6"/>
      <feComposite in="SourceGraphic"/>
    </filter>
    <filter id="Tracé_292" x="808.484" y="16.366" width="64.577" height="132.416" filterUnits="userSpaceOnUse">
      <feOffset dx="3" dy="3" input="SourceAlpha"/>
      <feGaussianBlur stdDeviation="5" result="blur-7"/>
      <feFlood flood-opacity="0.102"/>
      <feComposite operator="in" in2="blur-7"/>
      <feComposite in="SourceGraphic"/>
    </filter>
    <filter id="Tracé_293" x="675.38" y="79.188" width="64.06" height="72.834" filterUnits="userSpaceOnUse">
      <feOffset dx="3" dy="3" input="SourceAlpha"/>
      <feGaussianBlur stdDeviation="5" result="blur-8"/>
      <feFlood flood-opacity="0.102"/>
      <feComposite operator="in" in2="blur-8"/>
      <feComposite in="SourceGraphic"/>
    </filter>
    <filter id="Tracé_294" x="674.516" y="27.4" width="152.731" height="97.656" filterUnits="userSpaceOnUse">
      <feOffset dx="3" dy="3" input="SourceAlpha"/>
      <feGaussianBlur stdDeviation="5" result="blur-9"/>
      <feFlood flood-opacity="0.102"/>
      <feComposite operator="in" in2="blur-9"/>
      <feComposite in="SourceGraphic"/>
    </filter>
    <filter id="Tracé_295" x="683.907" y="3.642" width="163.968" height="149.017" filterUnits="userSpaceOnUse">
      <feOffset dx="3" dy="3" input="SourceAlpha"/>
      <feGaussianBlur stdDeviation="5" result="blur-10"/>
      <feFlood flood-opacity="0.102"/>
      <feComposite operator="in" in2="blur-10"/>
      <feComposite in="SourceGraphic"/>
    </filter>
    <filter id="Tracé_296" x="796.889" y="13.822" width="48.233" height="50.585" filterUnits="userSpaceOnUse">
      <feOffset dx="3" dy="3" input="SourceAlpha"/>
      <feGaussianBlur stdDeviation="5" result="blur-11"/>
      <feFlood flood-opacity="0.102"/>
      <feComposite operator="in" in2="blur-11"/>
      <feComposite in="SourceGraphic"/>
    </filter>
    <filter id="Tracé_297" x="797.016" y="48.013" width="36.93" height="37.057" filterUnits="userSpaceOnUse">
      <feOffset dx="3" dy="3" input="SourceAlpha"/>
      <feGaussianBlur stdDeviation="5" result="blur-12"/>
      <feFlood flood-opacity="0.102"/>
      <feComposite operator="in" in2="blur-12"/>
      <feComposite in="SourceGraphic"/>
    </filter>
    <filter id="Tracé_298" x="780.033" y="98.423" width="37.058" height="37.057" filterUnits="userSpaceOnUse">
      <feOffset dx="3" dy="3" input="SourceAlpha"/>
      <feGaussianBlur stdDeviation="5" result="blur-13"/>
      <feFlood flood-opacity="0.102"/>
      <feComposite operator="in" in2="blur-13"/>
      <feComposite in="SourceGraphic"/>
    </filter>
    <filter id="Tracé_299" x="803.944" y="140.278" width="37.109" height="37.059" filterUnits="userSpaceOnUse">
      <feOffset dx="3" dy="3" input="SourceAlpha"/>
      <feGaussianBlur stdDeviation="5" result="blur-14"/>
      <feFlood flood-opacity="0.102"/>
      <feComposite operator="in" in2="blur-14"/>
      <feComposite in="SourceGraphic"/>
    </filter>
    <filter id="Tracé_300" x="797.117" y="13.847" width="47.768" height="50.535" filterUnits="userSpaceOnUse">
      <feOffset dx="3" dy="3" input="SourceAlpha"/>
      <feGaussianBlur stdDeviation="5" result="blur-15"/>
      <feFlood flood-opacity="0.102"/>
      <feComposite operator="in" in2="blur-15"/>
      <feComposite in="SourceGraphic"/>
    </filter>
    <filter id="Tracé_301" x="837.807" y="112.385" width="47.311" height="92.849" filterUnits="userSpaceOnUse">
      <feOffset dx="3" dy="3" input="SourceAlpha"/>
      <feGaussianBlur stdDeviation="5" result="blur-16"/>
      <feFlood flood-opacity="0.102"/>
      <feComposite operator="in" in2="blur-16"/>
      <feComposite in="SourceGraphic"/>
    </filter>
  </defs>
  <g id="Caméra_laser" data-name="Caméra + laser" transform="translate(-213.042 -9.085)">
    <g transform="matrix(1, 0, 0, 1, 213.04, 9.09)" filter="url(#Tracé_288)">
      <path id="Tracé_288-2" data-name="Tracé 288" d="M712.491,645.306,841.17,81.081c1.542-7.243-10.429-29.68-15.869-25.324L141.28,645.306Z" transform="translate(-129.28 43.4)" fill="#e62e2b" opacity="0.75"/>
    </g>
    <g transform="matrix(1, 0, 0, 1, 213.04, 9.09)" filter="url(#Ellipse_45)">
      <circle id="Ellipse_45-2" data-name="Ellipse 45" cx="19.19" cy="19.19" r="19.19" transform="translate(761.83 76.36)" fill="#010101"/>
    </g>
    <g transform="matrix(1, 0, 0, 1, 213.04, 9.09)" filter="url(#Rectangle_29)">
      <rect id="Rectangle_29-2" data-name="Rectangle 29" width="48.203" height="16.118" transform="translate(814.73 147.74)" fill="#010101"/>
    </g>
    <g transform="matrix(1, 0, 0, 1, 213.04, 9.09)" filter="url(#Tracé_289)">
      <path id="Tracé_289-2" data-name="Tracé 289" d="M474.222,90.609c-1.98,1.295-3.757,2.538-5.635,3.63a5.077,5.077,0,0,1-6.98-2.081c-6.143-8.986-12.184-18-18.4-26.932-3.452-5.077-3.934-7.26,1.954-10.686,1.091-.635,2.107-1.447,3.274-2.259Z" transform="translate(247.5 38.9)"/>
    </g>
    <g transform="matrix(1, 0, 0, 1, 213.04, 9.09)" filter="url(#Tracé_290)">
      <path id="Tracé_290-2" data-name="Tracé 290" d="M520.34,111.957l-11.879,5.457L478.94,65.531l12.412-8.351Z" transform="translate(306.39 46.44)" fill="#010101"/>
    </g>
    <g transform="matrix(1, 0, 0, 1, 213.04, 9.09)" filter="url(#Tracé_291)">
      <path id="Tracé_291-2" data-name="Tracé 291" d="M440.986,98.593c-1.98-1.168-2.208-3.274-.381-4.467,4.594-3.071,9.011-6.371,13.758-9.214,3-1.777,5.635-4.163,8.6-6.016,5.635-3.478,11.016-7.31,16.448-11.042,3.224-2.234,6.727-4.061,9.747-6.6s6.194-3.757,8.986-6.067,5.61-3.528,8.224-5.508,5.99-4.239,9.087-6.219,6.651-4.8,10.153-6.93c2.97-1.777,5.61-4.061,8.58-5.94,4.366-2.741,8.529-5.813,12.692-8.732a2.843,2.843,0,0,1,4.671,1.244c-.482.99.152,1.853.33,2.767a6.85,6.85,0,0,1,.152,1.041,45.692,45.692,0,0,0,5.077,13.2c1.269,2.31,2.843,4.417,3.909,6.828a12.7,12.7,0,0,1,.736,2.284,14.849,14.849,0,0,1-6.549,15.027c-12.311,8.529-24.749,16.88-37.136,25.383-10,6.8-20.078,13.529-30,20.459a16.8,16.8,0,0,1-9.011,3.274,14.036,14.036,0,0,1-9.519-3.122,64.771,64.771,0,0,0-10.788-7.437,37.39,37.39,0,0,0-16.423-4.061,1.9,1.9,0,0,1-1.345-.152Z" transform="translate(245.5 -9.09)" fill="#3f3f3f"/>
    </g>
    <g transform="matrix(1, 0, 0, 1, 213.04, 9.09)" filter="url(#Tracé_292)">
      <path id="Tracé_292-2" data-name="Tracé 292" d="M527.365,126.42l-2.716,3.528a1.675,1.675,0,0,1-1.142-.787,49.982,49.982,0,0,1-10.61-21.4,35.739,35.739,0,0,1,.99-17.921c1.777-5.356,3.579-10.712,5.077-16.144a46.045,46.045,0,0,0-2.335-31.983,21.931,21.931,0,0,0-5.077-6.9,10.331,10.331,0,0,0-11.9-2.107,27.438,27.438,0,0,1-4.493,1.5,3.351,3.351,0,0,1-2.361-3.376c2.284-.863,4.569-1.8,6.9-2.538a14.392,14.392,0,0,1,15.23,3.934,33.227,33.227,0,0,1,8.96,17.21,54.752,54.752,0,0,1-1.98,30.46c-1.091,3.274-2.36,6.5-3.35,9.8-4.163,13.682-.381,25.536,8.2,36.324A1.854,1.854,0,0,0,527.365,126.42Z" transform="translate(327.7 0.83)" fill="#e62e2b"/>
    </g>
    <g transform="matrix(1, 0, 0, 1, 213.04, 9.09)" filter="url(#Tracé_293)">
      <path id="Tracé_293-2" data-name="Tracé 293" d="M474.337,90.809c-1.675,1.091-3.325,2.234-5.077,3.3a5.305,5.305,0,0,1-7.615-1.5q-10.153-14.7-20.078-29.419a4.569,4.569,0,0,1,1.345-7.209l5.2-3.63a.822.822,0,0,1,.964.254c1.853,2.538,3.579,5.077,5.28,7.615,6.3,9.493,12.692,18.86,19.037,28.353C473.931,89.261,474.642,89.845,474.337,90.809Z" transform="translate(247.03 38.91)" fill="#010101"/>
    </g>
    <g transform="matrix(1, 0, 0, 1, 213.04, 9.09)" filter="url(#Tracé_294)">
      <path id="Tracé_294-2" data-name="Tracé 294" d="M449.4,84.12l-.66-.381a21.551,21.551,0,0,0-7.285-1.371,1.967,1.967,0,0,1-1.447-.381c10.509-.711,19.241,3.427,27.033,9.976,6.3,5.33,12.692,5.813,19.444,1.168q33.735-22.845,67.444-45.893a14.849,14.849,0,0,0,6.651-14.621c-.127-.355-.33-.761.355-.736a14.418,14.418,0,0,1-5.28,19.393c-11.4,7.615-22.845,15.433-34.242,23.175C510.6,81.81,499.763,89.12,489.025,96.583c-7.006,4.874-14.139,3.325-19.875-1.8a29.852,29.852,0,0,0-7.615-5.711c-.609.152-.964-.3-1.4-.558A40.613,40.613,0,0,0,449.4,84.12Z" transform="translate(246.51 7.52)" fill="#010101"/>
    </g>
    <g transform="matrix(1, 0, 0, 1, 213.04, 9.09)" filter="url(#Tracé_295)">
      <path id="Tracé_295-2" data-name="Tracé 295" d="M575.7,64.809c-2.538-3.858-5.331-7.615-7.767-11.524-3.122-4.772-6.371-9.417-9.544-14.113-.432-.685-.838-1.447-1.7-1.726l-8.173-12.006a7.614,7.614,0,0,0-3-2.919.761.761,0,0,0-.279.355c-.152.609.33,1.244,0,1.828v.888a66.882,66.882,0,0,0,9.037,19.266,4.06,4.06,0,0,1,.863,1.751,18.349,18.349,0,0,1,1.548,5.914A14.672,14.672,0,0,1,549.406,65.6c-11.067,7.361-21.957,14.951-33,22.363L505.366,95.4c-7.742,5.305-15.484,10.636-23.327,15.839a12.92,12.92,0,0,1-12.692,1.142,22.844,22.844,0,0,1-6.3-4.163,43.378,43.378,0,0,0-5.534-4.341c-.482-.3-.965-.939-1.726-.508h0a36.957,36.957,0,0,0-11.346-5.178.635.635,0,0,0-.736.33c4.62,6.879,9.24,13.732,13.834,20.637,3.884,5.787,7.615,11.626,11.626,17.438.482.635,1.015,1.244,1.472,1.9,1.853,2.665,7.894,4.188,10.153,1.98h0a21.894,21.894,0,0,0,2.411-.99c9.95-6.8,19.9-13.529,29.851-20.307.736-.482,1.32-1.218,2.259-1.269,9.366-6.194,18.53-12.692,27.922-18.911a28.661,28.661,0,0,1,6.6-4.011c.584-.482,1.167-.965,1.777-1.4,6.98-4.9,14.139-9.544,21.119-14.418a12.031,12.031,0,0,0,3.528-3.63,9.417,9.417,0,0,0-.559-10.737Z" transform="translate(252.2 -6.88)" fill="#141414"/>
    </g>
    <g transform="matrix(1, 0, 0, 1, 213.04, 9.09)" filter="url(#Tracé_296)">
      <path id="Tracé_296-2" data-name="Tracé 296" d="M499.795,32.368a11.9,11.9,0,0,0,2.082,3.148,27.921,27.921,0,0,1,4.34,5.889.99.99,0,0,1-.178,1.447,27.691,27.691,0,0,1-6.93,4.264L488.22,31.276c2.158-1.472,4.341-2.97,6.473-4.493.635-.432.939-.3,1.371.33C497.257,28.89,498.551,30.616,499.795,32.368Z" transform="translate(320.67 -0.71)" fill="#606060"/>
    </g>
    <g transform="matrix(1, 0, 0, 1, 213.04, 9.09)" filter="url(#Tracé_297)">
      <path id="Tracé_297-2" data-name="Tracé 297" d="M495.2,43.5a3.528,3.528,0,0,1-3.376,3.554,3.579,3.579,0,0,1-3.554-3.4A3.655,3.655,0,0,1,491.824,40,3.579,3.579,0,0,1,495.2,43.5Z" transform="translate(320.75 20.01)" fill="#e62e2b"/>
    </g>
    <g transform="matrix(1, 0, 0, 1, 213.04, 9.09)" filter="url(#Tracé_298)">
      <path id="Tracé_298-2" data-name="Tracé 298" d="M485.185,59.86a3.655,3.655,0,0,1,3.452,3.706,3.782,3.782,0,0,1-3.655,3.351,3.655,3.655,0,0,1-3.4-3.757,3.553,3.553,0,0,1,3.6-3.3Z" transform="translate(310.45 50.56)" fill="#3f3f3f"/>
    </g>
    <g transform="matrix(1, 0, 0, 1, 213.04, 9.09)" filter="url(#Tracé_299)">
      <path id="Tracé_299-2" data-name="Tracé 299" d="M494.656,76.352a3.655,3.655,0,0,1,3.452,3.706,3.807,3.807,0,0,1-3.655,3.351A3.681,3.681,0,0,1,491,79.626a3.528,3.528,0,0,1,3.655-3.274Z" transform="translate(324.94 75.93)" fill="#141414"/>
    </g>
    <g transform="matrix(1, 0, 0, 1, 213.04, 9.09)" filter="url(#Tracé_300)">
      <path id="Tracé_300-2" data-name="Tracé 300" d="M495.417,26.54l10.661,15.712-7.107,4.823L488.31,31.388Z" transform="translate(320.81 -0.69)"/>
    </g>
    <g transform="matrix(1, 0, 0, 1, 213.04, 9.09)" filter="url(#Tracé_301)">
      <path id="Tracé_301-2" data-name="Tracé 301" d="M521.651,65.36h-5.077A12.285,12.285,0,0,0,504.34,77.595v38.38a12.285,12.285,0,0,0,12.235,12.235h5.077Z" transform="translate(345.47 59.02)" fill="#141414"/>
    </g>
  </g>
</svg>
