<svg xmlns="http://www.w3.org/2000/svg" width="236.278" height="227.174" viewBox="0 0 236.278 227.174">
  <g id="Caméra" transform="translate(0)">
    <ellipse id="Ellipse_10" data-name="Ellipse 10" cx="24.878" cy="24.878" rx="24.878" ry="24.878" transform="translate(99.758 83.411)" fill="#010101"/>
    <rect id="Rectangle_7" data-name="Rectangle 7" width="62.491" height="20.907" transform="translate(168.336 175.97)" fill="#010101"/>
    <path id="Tracé_159" data-name="Tracé 159" d="M218.063,189.063c-2.574,1.678-4.867,3.325-7.3,4.711-3.21,1.813-6.753.7-9.078-2.71-7.952-11.642-15.789-23.356-23.856-34.914-4.481-6.451-5.086-9.38,2.533-13.861,1.417-.834,2.731-1.866,4.263-2.918Z" transform="translate(-170.301 -36.72)"/>
    <path id="Tracé_160" data-name="Tracé 160" d="M349.1,225.836l-15.4,7.108-38.28-67.285,16.092-10.829Z" transform="translate(-165.198 -36.067)" fill="#010101"/>
    <path id="Tracé_161" data-name="Tracé 161" d="M172.575,141.349c-2.553-1.532-2.856-4.242-.5-5.816,5.961-3.96,11.7-8.233,17.853-11.912,3.887-2.335,7.3-5.42,11.162-7.806,7.3-4.513,14.268-9.484,21.324-14.341,4.169-2.877,8.713-5.211,12.621-8.536,3.627-3.022,8.056-4.878,11.652-7.89,3.314-2.772,7.3-4.554,10.662-7.118,3.825-2.876,7.785-5.492,11.8-8.077,4.471-2.877,8.609-6.253,13.184-8.973,3.846-2.314,7.3-5.274,11.12-7.692,5.67-3.575,11.068-7.556,16.6-11.329,2.553-1.74,4.669-1.146,6.055,1.605-.636,1.282.2,2.4.417,3.585a8.342,8.342,0,0,1,.208,1.355,58.989,58.989,0,0,0,6.6,17.1c1.615,2.991,3.658,5.722,5.065,8.848a16.125,16.125,0,0,1,.948,2.939c1.115,8.338-2.085,14.841-8.848,19.489-15.967,11.058-32.1,21.886-48.15,32.809-12.976,8.838-26.055,17.551-38.9,26.524a21.709,21.709,0,0,1-11.6,4.356,18.176,18.176,0,0,1-12.329-4.054,85.635,85.635,0,0,0-14.091-9.661,48.379,48.379,0,0,0-21.292-5.211,2.564,2.564,0,0,1-1.563-.2Z" transform="translate(-170.472 -40.877)" fill="#3f3f3f"/>
    <path id="Tracé_162" data-name="Tracé 162" d="M383.987,189.417,380.454,194a2.084,2.084,0,0,1-1.449-1.042c-6.441-8.338-11.84-17.186-13.768-27.765a46.337,46.337,0,0,1,1.272-23.231c2.3-6.941,4.648-13.872,6.566-20.917,3.825-14.112,3.064-28.036-3.033-41.48a28.433,28.433,0,0,0-6.608-8.963,13.392,13.392,0,0,0-15.4-2.71,33.929,33.929,0,0,1-5.836,1.939,4.356,4.356,0,0,1-3.074-4.377c2.981-1.1,5.93-2.335,8.953-3.314,7.66-2.491,14.195-.386,19.865,5.076,6.368,6.149,9.651,13.841,11.6,22.324,3.127,13.465,1.855,26.545-2.543,39.531-1.438,4.242-3.064,8.421-4.367,12.715-5.378,17.718-.469,33.1,10.62,47.087a2.917,2.917,0,0,0,.74.542Z" transform="translate(-163.353 -40.023)" fill="#e62e2b"/>
    <path id="Tracé_163" data-name="Tracé 163" d="M217.609,189.313c-2.157,1.428-4.294,2.887-6.483,4.273a6.9,6.9,0,0,1-9.828-1.928q-13.049-19.041-26.055-38.145c-2.564-3.794-1.949-6.806,1.73-9.38q3.4-2.324,6.764-4.68a1.025,1.025,0,0,1,1.219.334c2.407,3.22,4.648,6.576,6.868,9.932,8.15,12.3,16.53,24.44,24.669,36.748C217.088,187.323,218.026,188.083,217.609,189.313Z" transform="translate(-170.336 -36.72)" fill="#010101"/>
    <path id="Tracé_164" data-name="Tracé 164" d="M184.663,142.673l-.834-.49c-2.96-1.647-6.305-1.209-9.453-1.782-.646-.115-1.386.177-1.9-.49,13.632-.938,25.013,4.419,35.05,12.944,8.161,6.9,16.342,7.514,25.222,1.48q43.773-29.714,87.452-59.5c6.587-4.5,9.38-10.954,8.609-18.937-.167-.479-.406-1.042.479-.948,4.752,9.307,2.084,19.02-6.837,25.117-14.789,10.047-29.62,20.031-44.4,30.078-14.028,9.526-28.14,19-42.022,28.692-9.078,6.316-18.312,4.3-25.763-2.355-3.127-2.783-6.107-5.68-9.995-7.4-.782.219-1.251-.375-1.824-.709A52.113,52.113,0,0,0,184.663,142.673Z" transform="translate(-170.387 -39.439)" fill="#010101"/>
    <path id="Tracé_165" data-name="Tracé 165" d="M355.319,100.222c-3.345-5-6.92-9.838-10.089-14.966-4.023-6.159-8.254-12.183-12.35-18.3-.573-.855-1.094-1.845-2.21-2.209q-5.357-7.785-10.735-15.633a10.006,10.006,0,0,0-3.867-3.762.855.855,0,0,0-.4.459c-.2.782.448,1.595-.083,2.366a8.067,8.067,0,0,0,.1,1.126c2.157,9.151,6.879,17.1,11.714,25.013a4.993,4.993,0,0,1,1.094,2.262c.938,2.491,1.97,4.971,2.022,7.692.135,7.462-3.345,12.9-9.432,16.946-14.351,9.526-28.484,19.375-42.731,28.984q-7.118,4.784-14.195,9.63c-10.057,6.879-20.1,13.8-30.224,20.542a16.779,16.779,0,0,1-16.6,1.522,28.847,28.847,0,0,1-8.14-5.419,57.233,57.233,0,0,0-7.16-5.6c-.657-.417-1.282-1.23-2.251-.677v.083c-4.367-3.314-9.432-5.149-14.591-6.774a.782.782,0,0,0-.948.417q8.994,13.361,17.957,26.743,7.546,11.287,15.039,22.616c.646.834,1.334,1.626,1.928,2.48,2.4,3.45,10.224,5.43,13.174,2.553h0a27.5,27.5,0,0,0,3.127-1.292q19.323-13.194,38.708-26.285c.938-.625,1.688-1.574,2.929-1.657,12.131-8.025,24.023-16.384,36.092-24.5,2.772-1.855,5.294-4.169,8.546-5.211.75-.636,1.511-1.261,2.335-1.834,9.046-6.326,18.291-12.361,27.358-18.666a15.56,15.56,0,0,0,4.565-4.732C358.758,109.4,358.351,104.777,355.319,100.222Z" transform="translate(-169.89 -40.688)" fill="#141414"/>
    <path id="Tracé_166" data-name="Tracé 166" d="M339.727,65.615a15.821,15.821,0,0,0,2.72,4.075c2.355,2.2,3.929,4.961,5.618,7.65a1.292,1.292,0,0,1-.219,1.855c-2.918,1.959-5.524,4.461-8.994,5.545L324.74,64.25c2.8-1.939,5.618-3.856,8.39-5.826.823-.584,1.219-.4,1.761.406C336.475,61.123,338.112,63.343,339.727,65.615Z" transform="translate(-163.96 -40.151)" fill="#606060"/>
    <path id="Tracé_167" data-name="Tracé 167" d="M333.944,105.1a4.607,4.607,0,0,1-4.367,4.627,4.669,4.669,0,0,1-4.627-4.409,4.784,4.784,0,0,1,4.534-4.784,4.659,4.659,0,0,1,4.461,4.565Z" transform="translate(-163.951 -38.359)" fill="#e62e2b"/>
    <path id="Tracé_168" data-name="Tracé 168" d="M308.319,163.31a4.711,4.711,0,0,1,4.461,4.794,4.909,4.909,0,0,1-4.742,4.336,4.732,4.732,0,0,1-4.388-4.878,4.544,4.544,0,0,1,4.669-4.252Z" transform="translate(-164.851 -35.709)" fill="#3f3f3f"/>
    <path id="Tracé_169" data-name="Tracé 169" d="M338.26,215.37a4.721,4.721,0,0,1,4.461,4.794,4.909,4.909,0,0,1-4.742,4.336,4.742,4.742,0,0,1-4.4-4.878A4.565,4.565,0,0,1,338.26,215.37Z" transform="translate(-163.587 -33.512)" fill="#141414"/>
    <path id="Tracé_170" data-name="Tracé 170" d="M334.244,58.08l13.809,20.354-9.213,6.253c-4.627-6.8-9.14-13.445-13.82-20.344Z" transform="translate(-163.948 -40.151)"/>
    <path id="Tracé_171" data-name="Tracé 171" d="M398.093,180.65h-6.681a15.915,15.915,0,0,0-15.873,15.873v49.755a15.925,15.925,0,0,0,15.873,15.873h6.681Z" transform="translate(-161.816 -34.977)" fill="#141414"/>
  </g>
</svg>
